<svg width="137" height="70" viewBox="0 0 137 70" fill="none" xmlns="http://www.w3.org/2000/svg">
<g opacity="0.2" clip-path="url(#clip0_3494_55317)">
<path d="M14.8252 49.5226C16.0254 50.7655 17.8135 50.7509 19.0558 49.5298L14.8252 49.5226ZM14.8252 49.5226C13.6117 48.2952 13.6048 46.4964 14.83 45.2905C16.0518 44.0593 17.8395 44.0601 19.0606 45.2929C20.2772 46.5211 20.2843 48.323 19.0559 49.5297L14.8252 49.5226Z" fill="#E6F7F4" stroke="#E6F7F4"/>
<path d="M33.7309 64.2363L33.7309 64.2363L33.7261 64.2412C33.119 64.8541 32.3754 65.191 31.6104 65.2083C30.8439 65.2256 30.0991 64.9207 29.4978 64.33C28.2888 63.1425 28.2028 61.3142 29.4073 60.0956C30.5894 58.8714 32.4047 58.7928 33.638 60.0043C34.8505 61.1954 34.9288 62.9933 33.7309 64.2363Z" fill="#E6F7F4" stroke="#E6F7F4"/>
<path d="M4.3711 15.7451C5.59113 16.9435 5.627 18.7414 4.43622 19.9769C3.24688 21.2109 1.45772 21.2476 0.230942 20.0427C-0.984742 18.8486 -1.02912 17.0222 0.165743 15.8109C1.33125 14.5723 3.14886 14.5446 4.3711 15.7451Z" fill="#E6F7F4" stroke="#E6F7F4"/>
<path d="M14.8196 34.7491C13.636 33.521 13.6295 31.7227 14.8569 30.5171C16.0761 29.3195 17.8656 29.3131 19.0623 30.5548C20.2446 31.7816 20.2528 33.579 18.9997 34.7844C17.797 36.0249 16.0048 35.9789 14.8196 34.7491Z" fill="#E6F7F4" stroke="#E6F7F4"/>
<path d="M29.5373 49.6184L29.537 49.6181C28.2926 48.4279 28.2136 46.6304 29.3791 45.3866L29.3793 45.3863C30.5604 44.1277 32.3768 44.0473 33.6119 45.2268L33.6122 45.2271C34.8566 46.4173 34.9356 48.2148 33.7701 49.4586L33.7702 49.4587L33.7651 49.4638C32.5602 50.7132 30.7752 50.8005 29.5373 49.6184Z" fill="#E6F7F4" stroke="#E6F7F4"/>
<path d="M48.3364 64.264L48.3365 64.264L48.3317 64.2689C47.1183 65.4939 45.3328 65.5373 44.1035 64.3297C42.887 63.1347 42.8434 61.3065 44.0407 60.0952C45.2302 58.8634 47.0455 58.8278 48.2713 60.0319C49.4913 61.2303 49.5272 63.0284 48.3364 64.264Z" fill="#E6F7F4" stroke="#E6F7F4"/>
<path d="M0.201778 5.26695L0.201744 5.26698L0.196992 5.26205C-0.984996 4.03567 -0.993024 2.24057 0.229494 1.035C1.42476 -0.200138 3.24605 -0.198494 4.43966 1.03994C5.62243 2.26713 5.62969 4.0638 4.40472 5.26939C3.17911 6.50423 1.39141 6.46789 0.201778 5.26695Z" fill="#E6F7F4" stroke="#E6F7F4"/>
<path d="M14.6516 15.9377L14.6521 15.9372C15.7926 14.6541 17.6098 14.4925 18.8586 15.6488C20.1261 16.7991 20.2831 18.6241 19.1421 19.8801C17.9984 21.1645 16.2124 21.3179 14.9402 20.1687L14.9402 20.1687L14.9397 20.1682C13.6668 19.015 13.5162 17.2188 14.6516 15.9377Z" fill="#E6F7F4" stroke="#E6F7F4"/>
<path d="M29.3483 30.6157L29.3486 30.6155C30.5294 29.3571 32.318 29.2761 33.5534 30.456L33.5537 30.4562C34.7981 31.6464 34.8771 33.444 33.7116 34.6878L33.7114 34.6881C32.5379 35.9386 30.7469 36.0636 29.5039 34.845C28.2618 33.6548 28.1836 31.8588 29.3483 30.6157Z" fill="#E6F7F4" stroke="#E6F7F4"/>
<path d="M44.0458 49.4921L44.0457 49.492C42.8549 48.2564 42.8908 46.4584 44.1108 45.2601C45.3376 44.055 47.1267 44.0918 48.316 45.3258C49.506 46.5605 49.471 48.3569 48.2534 49.5553C47.0543 50.7634 45.263 50.7541 44.0458 49.4921Z" fill="#E6F7F4" stroke="#E6F7F4"/>
<path d="M19.0217 1.035C20.2375 2.26247 20.2453 4.06287 19.0193 5.26958C18.422 5.8715 17.6812 6.19238 16.919 6.19238C16.1558 6.19238 15.4141 5.87064 14.8163 5.26715C13.6013 4.0405 13.5927 2.24167 14.8163 1.03497C16.0141 -0.203001 17.8041 -0.194259 19.0217 1.035Z" fill="#E6F7F4" stroke="#E6F7F4"/>
<path d="M29.3541 19.9742C28.1654 18.7384 28.2019 16.9399 29.4517 15.7424C30.6751 14.543 32.4948 14.5723 33.6593 15.8433C34.8455 17.079 34.8082 18.876 33.5593 20.0727C32.3322 21.2757 30.5425 21.2381 29.3541 19.9742Z" fill="#E6F7F4" stroke="#E6F7F4"/>
<path d="M48.2857 34.7493L48.2857 34.7494L48.2809 34.7542C47.0675 35.9792 45.282 36.0226 44.0527 34.8151C42.8362 33.6201 42.7926 31.792 43.99 30.5806C45.1794 29.3489 46.9947 29.3133 48.2205 30.5174C49.4405 31.7157 49.4764 33.5138 48.2857 34.7493Z" fill="#E6F7F4" stroke="#E6F7F4"/>
<path d="M33.5456 0.940866L33.5459 0.941125C34.7903 2.13128 34.8693 3.92871 33.7038 5.17252L33.7036 5.17279C32.5227 6.43107 30.7342 6.51203 29.4988 5.33225L29.4985 5.33199C28.2549 4.14261 28.1751 2.34673 29.3383 1.10301C30.4952 -0.162552 32.3139 -0.235376 33.5456 0.940866Z" fill="#E6F7F4" stroke="#E6F7F4"/>
<path d="M48.2845 19.9769L48.2846 19.977L48.2798 19.9818C47.0739 21.1992 45.2883 21.2855 44.0515 20.0707C42.8425 18.8831 42.7565 17.0547 43.961 15.8361C45.1432 14.6119 46.9584 14.5334 48.1917 15.7449C49.4042 16.9359 49.4824 18.7339 48.2845 19.9769Z" fill="#E6F7F4" stroke="#E6F7F4"/>
<path d="M43.9841 5.23861L43.984 5.23864L43.9793 5.23371C42.7885 3.99816 42.8244 2.2001 44.0444 1.00171C45.2712 -0.203336 47.0603 -0.166624 48.2496 1.06745C49.4396 2.30218 49.4046 4.09866 48.187 5.29705C46.9816 6.51144 45.1938 6.45992 43.9841 5.23861Z" fill="#E6F7F4" stroke="#E6F7F4"/>
<path d="M4.44455 64.2638L4.44459 64.2638L4.43977 64.2687C3.84431 64.8698 3.10518 65.1992 2.34275 65.2078C1.57979 65.2165 0.836453 64.9033 0.236795 64.2991C-0.984708 63.0968 -0.985109 61.2702 0.20425 60.067C1.39763 58.8312 3.21514 58.8307 4.40963 60.0341C5.63457 61.2398 5.62731 63.0365 4.44455 64.2638Z" fill="#E6F7F4" stroke="#E6F7F4"/>
<path d="M0.276098 49.6184L0.275826 49.6181C-0.968597 48.4279 -1.04761 46.6304 0.11787 45.3866L0.118126 45.3863C1.29923 44.1277 3.11556 44.0473 4.35071 45.2268L4.35098 45.2271C5.59541 46.4173 5.67442 48.2148 4.50894 49.4586L4.50898 49.4587L4.50397 49.4638C3.29896 50.7132 1.51398 50.8005 0.276098 49.6184Z" fill="#E6F7F4" stroke="#E6F7F4"/>
<path d="M14.8266 64.3018L14.8265 64.3018L14.8217 64.2969C13.6059 63.0695 13.5981 61.2691 14.8241 60.0624C16.046 58.8312 17.8337 58.832 19.0548 60.0648C20.2714 61.2931 20.2784 63.0951 19.05 64.3018L19.05 64.3018L19.0452 64.3064C18.434 64.891 17.689 65.2012 16.9279 65.2012C16.1661 65.2012 15.4257 64.8904 14.8266 64.3018Z" fill="#E6F7F4" stroke="#E6F7F4"/>
<path d="M4.48548 34.7493L4.48552 34.7494L4.4807 34.7542C3.26729 35.9792 1.48179 36.0226 0.252427 34.8151C-0.964087 33.6201 -1.00769 31.792 0.189677 30.5806C1.37919 29.3489 3.19452 29.3133 4.42037 30.5174C5.64039 31.7157 5.67626 33.5138 4.48548 34.7493Z" fill="#E6F7F4" stroke="#E6F7F4"/>
<path d="M87.893 49.525C86.6772 48.2976 86.6694 46.4972 87.8954 45.2905C89.1173 44.0593 90.9051 44.0601 92.1262 45.2929C93.3421 46.5204 93.3499 48.3208 92.1238 49.5274C90.9019 50.7586 89.1142 50.7578 87.893 49.525Z" fill="#E6F7F4" stroke="#E6F7F4"/>
<path d="M106.802 64.2363L106.802 64.2364C105.589 65.4945 103.8 65.5388 102.569 64.33C101.36 63.1425 101.274 61.3142 102.479 60.0956C103.661 58.8714 105.476 58.7928 106.709 60.0043C107.922 61.1954 108 62.9933 106.802 64.2363Z" fill="#E6F7F4" stroke="#E6F7F4"/>
<path d="M58.6181 5.27205L58.618 5.27208L58.6132 5.26722C57.3982 4.04058 57.3896 2.24177 58.6132 1.03509C59.8074 -0.199041 61.6249 -0.197967 62.8186 1.00712C64.0344 2.23456 64.0422 4.03495 62.8162 5.24165C62.2187 5.84372 61.4788 6.16361 60.7187 6.16792C59.958 6.17224 59.2168 5.86021 58.6181 5.27205Z" fill="#E6F7F4" stroke="#E6F7F4"/>
<path d="M77.3915 15.7451C78.6115 16.9435 78.6474 18.7414 77.4566 19.9769C76.2673 21.2109 74.4782 21.2476 73.2514 20.0427C72.0349 18.8478 71.9913 17.0197 73.1887 15.8084C74.378 14.5768 76.1656 14.541 77.3915 15.7451Z" fill="#E6F7F4" stroke="#E6F7F4"/>
<path d="M87.8448 34.754L87.8448 34.754L87.8401 34.7491C86.6565 33.521 86.65 31.7227 87.8774 30.5171C89.0966 29.3195 90.886 29.3131 92.0828 30.5548C93.2642 31.7807 93.2733 33.5765 92.0227 34.782C90.8416 36.0321 89.0501 35.9708 87.8448 34.754Z" fill="#E6F7F4" stroke="#E6F7F4"/>
<path d="M102.603 49.6183L102.602 49.6181C101.358 48.4279 101.279 46.6304 102.444 45.3866L102.445 45.3863C103.626 44.1277 105.442 44.0473 106.677 45.2269L106.677 45.2271C107.922 46.4173 108.001 48.2148 106.835 49.4586L106.835 49.4586L106.83 49.4638C105.625 50.7132 103.841 50.8005 102.603 49.6183Z" fill="#E6F7F4" stroke="#E6F7F4"/>
<path d="M121.408 64.264L121.408 64.264L121.403 64.2689C120.19 65.4939 118.404 65.5373 117.175 64.3297C115.958 63.1347 115.915 61.3065 117.112 60.0952C118.302 58.8634 120.117 58.8278 121.343 60.0319C122.563 61.2303 122.599 63.0284 121.408 64.264Z" fill="#E6F7F4" stroke="#E6F7F4"/>
<path d="M77.4032 5.26936C76.1776 6.50423 74.3899 6.4679 73.2003 5.26694L73.2003 5.26697L73.1955 5.26204C72.0128 4.03485 72.0055 2.23819 73.2304 1.03261C74.4496 -0.195768 76.241 -0.202071 77.4381 1.03994C78.6208 2.26713 78.6281 4.06377 77.4032 5.26936Z" fill="#E6F7F4" stroke="#E6F7F4"/>
<path d="M87.6716 15.9377L87.6721 15.9372C88.8126 14.6541 90.6298 14.4924 91.8785 15.6488C93.146 16.7991 93.303 18.6241 92.162 19.8801C91.0183 21.1645 89.2324 21.3179 87.9602 20.1687L87.9602 20.1687L87.9597 20.1682C86.6869 19.015 86.5363 17.2188 87.6716 15.9377Z" fill="#E6F7F4" stroke="#E6F7F4"/>
<path d="M102.369 30.6157L102.369 30.6155C103.55 29.3571 105.338 29.2761 106.574 30.456L106.574 30.4562C107.818 31.6465 107.897 33.444 106.732 34.6878L106.732 34.6881C105.558 35.9386 103.767 36.0636 102.524 34.845C101.282 33.6548 101.204 31.8588 102.369 30.6157Z" fill="#E6F7F4" stroke="#E6F7F4"/>
<path d="M117.109 49.4896C115.92 48.2541 115.957 46.4576 117.176 45.2601C118.403 44.0551 120.192 44.0918 121.382 45.3258C122.573 46.5613 122.537 48.3593 121.317 49.5577C120.097 50.7556 118.305 50.7621 117.109 49.4896Z" fill="#E6F7F4" stroke="#E6F7F4"/>
<path d="M87.8153 1.03498C89.0098 -0.199447 90.8295 -0.198629 92.0232 1.03743C93.2366 2.26484 93.2435 4.06367 92.0183 5.26958C90.8 6.49724 89.01 6.50435 87.813 5.26472C86.6003 4.03813 86.5926 2.24088 87.8153 1.03498Z" fill="#E6F7F4" stroke="#E6F7F4"/>
<path d="M102.375 19.9742C101.186 18.7384 101.222 16.9399 102.472 15.7424C103.696 14.543 105.515 14.5723 106.68 15.8434C107.866 17.079 107.829 18.8759 106.58 20.0726C105.353 21.2757 103.563 21.2381 102.375 19.9742Z" fill="#E6F7F4" stroke="#E6F7F4"/>
<path d="M117.073 34.8151C115.856 33.6201 115.813 31.7919 117.01 30.5806C118.2 29.3489 120.015 29.3133 121.241 30.5174C122.461 31.7157 122.497 33.5138 121.306 34.7493L121.306 34.7494L121.301 34.7542C120.088 35.9792 118.302 36.0226 117.073 34.8151Z" fill="#E6F7F4" stroke="#E6F7F4"/>
<path d="M106.544 0.940872L106.544 0.941132C107.789 2.13128 107.868 3.92871 106.702 5.17251L106.702 5.17279C105.521 6.43107 103.733 6.51203 102.497 5.33224L102.497 5.33199C101.253 4.14261 101.174 2.34675 102.337 1.10304C103.494 -0.162552 105.312 -0.235387 106.544 0.940872Z" fill="#E6F7F4" stroke="#E6F7F4"/>
<path d="M121.305 19.9769L121.305 19.9769L121.3 19.9818C120.094 21.1993 118.309 21.2855 117.072 20.0707C115.863 18.8831 115.777 17.0548 116.981 15.8361C118.164 14.6119 119.979 14.5334 121.212 15.7449C122.424 16.9359 122.503 18.7339 121.305 19.9769Z" fill="#E6F7F4" stroke="#E6F7F4"/>
<path d="M116.978 5.23372C115.787 3.99817 115.823 2.20009 117.043 1.0017C118.27 -0.203331 120.059 -0.166621 121.248 1.06744C122.439 2.30299 122.403 4.10106 121.183 5.29946C119.956 6.50449 118.167 6.46778 116.978 5.23372Z" fill="#E6F7F4" stroke="#E6F7F4"/>
<path d="M63.0444 64.1371L63.0439 64.1377C61.9003 65.4241 60.1131 65.5783 58.8401 64.4285L58.8401 64.4285L58.8396 64.428C57.5701 63.2778 57.4122 61.4515 58.5539 60.1948C59.6938 58.9147 61.5078 58.7532 62.7558 59.9061C64.0341 61.0355 64.1755 62.8608 63.0444 64.1371Z" fill="#E6F7F4" stroke="#E6F7F4"/>
<path d="M58.7021 49.5573C57.4821 48.3589 57.4462 46.5609 58.637 45.3254C59.8229 44.0949 61.6419 44.0503 62.8447 45.262C64.0623 46.4604 64.0974 48.2568 62.9074 49.4915C61.7181 50.7256 59.9289 50.7623 58.7021 49.5573Z" fill="#E6F7F4" stroke="#E6F7F4"/>
<path d="M73.3085 64.2991C72.0871 63.0968 72.0867 61.2702 73.276 60.067C74.4693 58.8312 76.2868 58.8307 77.4813 60.0341C78.7062 61.2398 78.6989 63.0365 77.5162 64.2637C76.3266 65.4981 74.5352 65.5351 73.3085 64.2991Z" fill="#E6F7F4" stroke="#E6F7F4"/>
<path d="M62.8734 34.7491L62.8735 34.7491L62.8686 34.754C62.2732 35.3552 61.5341 35.6845 60.7717 35.6932C60.0087 35.7018 59.2654 35.3887 58.6657 34.7844C57.4515 33.5893 57.4082 31.7605 58.6356 30.5499C59.8323 29.3131 61.6185 29.3211 62.8361 30.5171C64.0634 31.7227 64.0569 33.521 62.8734 34.7491Z" fill="#E6F7F4" stroke="#E6F7F4"/>
<path d="M73.3464 49.6229L73.3464 49.623L73.3413 49.6181C72.0968 48.4279 72.0178 46.6304 73.1833 45.3866L73.1836 45.3863C74.3647 44.1277 76.1811 44.0473 77.4162 45.2268L77.4165 45.2271C78.6609 46.4173 78.7399 48.2148 77.5744 49.4586L77.5745 49.4587L77.5695 49.4639C76.9766 50.0786 76.2412 50.4228 75.4783 50.4529C74.7143 50.4831 73.9631 50.1963 73.3464 49.6229Z" fill="#E6F7F4" stroke="#E6F7F4"/>
<path d="M87.8979 64.3018L87.8978 64.3018L87.893 64.297C86.6772 63.0695 86.6694 61.2691 87.8954 60.0624C89.1173 58.8312 90.9051 58.832 92.1262 60.0648C93.3429 61.2931 93.3499 63.0951 92.1214 64.3018C90.9005 65.501 89.1187 65.501 87.8979 64.3018Z" fill="#E6F7F4" stroke="#E6F7F4"/>
<path d="M62.7468 15.679L62.7468 15.6789L62.7523 15.6842C63.9967 16.8744 64.0757 18.6718 62.9103 19.9157L62.91 19.9159C61.7292 21.1742 59.9407 21.2552 58.7053 20.0754L58.705 20.0751C57.4606 18.885 57.3816 17.0875 58.5471 15.8437C59.7033 14.6097 61.5159 14.5371 62.7468 15.679Z" fill="#E6F7F4" stroke="#E6F7F4"/>
<path d="M77.5058 34.7493L77.506 34.7495L77.4963 34.7589C76.2627 35.9716 74.4781 36.0294 73.2705 34.8127C72.0564 33.6177 72.0136 31.7912 73.2102 30.5807C74.3996 29.3489 76.2149 29.3133 77.4407 30.5174C78.6607 31.7158 78.6966 33.5138 77.5058 34.7493Z" fill="#E6F7F4" stroke="#E6F7F4"/>
<path d="M131.617 5.27204L131.617 5.27207L131.612 5.2672C130.397 4.04056 130.389 2.24173 131.612 1.03504C132.806 -0.199105 134.624 -0.198032 135.818 1.00707C137.033 2.23453 137.041 4.03493 135.815 5.24164C135.218 5.84371 134.478 6.16361 133.718 6.16792C132.957 6.17224 132.216 5.8602 131.617 5.27204Z" fill="#E6F7F4" stroke="#E6F7F4"/>
<path d="M136.116 64.1371L136.116 64.1376C134.972 65.4241 133.185 65.5783 131.912 64.4285L131.912 64.4285L131.911 64.428C130.642 63.2778 130.484 61.4514 131.626 60.1947C132.766 58.9146 134.58 58.7531 135.828 59.9061C137.106 61.0355 137.248 62.8608 136.116 64.1371Z" fill="#E6F7F4" stroke="#E6F7F4"/>
<path d="M131.768 49.5573C130.548 48.3589 130.512 46.5609 131.702 45.3254C132.888 44.0949 134.707 44.0503 135.91 45.262C137.128 46.4604 137.163 48.2568 135.973 49.4915C134.783 50.7256 132.994 50.7623 131.768 49.5573Z" fill="#E6F7F4" stroke="#E6F7F4"/>
<path d="M135.894 34.7491L135.894 34.7491L135.889 34.754C135.294 35.3552 134.555 35.6845 133.792 35.6932C133.029 35.7018 132.286 35.3887 131.686 34.7844C130.472 33.5893 130.429 31.7605 131.656 30.5499C132.853 29.3131 134.639 29.3211 135.857 30.5171C137.084 31.7227 137.077 33.521 135.894 34.7491Z" fill="#E6F7F4" stroke="#E6F7F4"/>
<path d="M135.767 15.679L135.768 15.6789L135.773 15.6842C137.017 16.8744 137.096 18.6718 135.931 19.9157L135.931 19.9159C134.75 21.1742 132.961 21.2552 131.726 20.0754L131.726 20.0751C130.481 18.885 130.402 17.0875 131.568 15.8437C132.724 14.6097 134.537 14.5371 135.767 15.679Z" fill="#E6F7F4" stroke="#E6F7F4"/>
</g>
<defs>
<clipPath id="clip0_3494_55317">
<rect width="167" height="110" fill="white" transform="matrix(1 0 0 -1 -30 110)"/>
</clipPath>
</defs>
</svg>
