<svg width="167" height="110" viewBox="0 0 167 110" fill="none" xmlns="http://www.w3.org/2000/svg">
<g opacity="0.2" clip-path="url(#clip0_3494_55414)">
<path d="M15.6195 79.0514L15.6195 79.0514L15.6147 79.0465C14.3997 77.8199 14.3911 76.0211 15.6146 74.8144C16.8089 73.5803 18.6264 73.5814 19.82 74.7865C21.0359 76.0139 21.0436 77.8143 19.8176 79.021C19.2201 79.623 18.4803 79.9429 17.7202 79.9472C16.9594 79.9515 16.2183 79.6395 15.6195 79.0514Z" fill="#E6F7F4" stroke="#E6F7F4"/>
<path d="M34.3989 89.5339C35.619 90.7323 35.6548 92.5304 34.4641 93.7659C33.2747 95 31.4855 95.0367 30.2588 93.8317C29.0431 92.6375 28.9987 90.8111 30.1936 89.5997C31.3591 88.361 33.1767 88.3334 34.3989 89.5339Z" fill="#E6F7F4" stroke="#E6F7F4"/>
<path d="M44.8093 108.542C43.6257 107.314 43.6193 105.516 44.8467 104.31C46.0658 103.113 47.8553 103.106 49.0521 104.348C50.2351 105.576 50.2426 107.375 48.987 108.58C47.7917 109.782 46.0018 109.78 44.8093 108.542Z" fill="#E6F7F4" stroke="#E6F7F4"/>
<path d="M30.2018 79.0467L30.2017 79.0467L30.197 79.0418C29.015 77.8154 29.007 76.0202 30.2295 74.8146C31.4248 73.5794 33.2461 73.5811 34.4397 74.8196C35.6224 76.0468 35.6297 77.8435 34.4047 79.0491C33.1791 80.284 31.3914 80.2477 30.2018 79.0467Z" fill="#E6F7F4" stroke="#E6F7F4"/>
<path d="M44.6794 89.699L44.6799 89.6984C45.8205 88.4153 47.6377 88.2537 48.8864 89.41C50.1539 90.5603 50.311 92.3854 49.1699 93.6413C48.0269 94.925 46.2425 95.079 44.9705 93.9321C43.6899 92.8029 43.5475 90.9761 44.6794 89.699Z" fill="#E6F7F4" stroke="#E6F7F4"/>
<path d="M59.4963 108.641L59.496 108.641C58.2516 107.451 58.1726 105.653 59.3381 104.41L59.3383 104.409C60.5191 103.151 62.3077 103.07 63.5431 104.25L63.5434 104.25C64.7878 105.44 64.8668 107.238 63.7014 108.482L63.7011 108.482C62.5203 109.74 60.7317 109.821 59.4963 108.641Z" fill="#E6F7F4" stroke="#E6F7F4"/>
<path d="M49.0169 74.7818L49.0169 74.7817L49.0217 74.7866C50.2375 76.014 50.2453 77.8144 49.0193 79.0211C48.422 79.623 47.6812 79.9438 46.919 79.9438C46.1558 79.9438 45.4141 79.6221 44.8163 79.0186C43.6005 77.7912 43.5927 75.9908 44.8188 74.7841C46.0156 73.5783 47.7996 73.5861 49.0169 74.7818Z" fill="#E6F7F4" stroke="#E6F7F4"/>
<path d="M63.5847 93.8645L63.5845 93.8647C62.3579 95.0361 60.5726 94.9991 59.3843 93.7661C58.1932 92.5302 58.229 90.7301 59.4795 89.5318C60.7029 88.3324 62.5227 88.3616 63.6871 89.6328C64.8741 90.8693 64.836 92.6677 63.5847 93.8645Z" fill="#E6F7F4" stroke="#E6F7F4"/>
<path d="M74.0424 108.608C72.8259 107.413 72.7824 105.585 73.9797 104.374C75.1692 103.142 76.9845 103.106 78.2103 104.31C79.4303 105.509 79.4661 107.307 78.2754 108.542L78.2754 108.542L78.2706 108.547C77.0572 109.772 75.2718 109.816 74.0424 108.608Z" fill="#E6F7F4" stroke="#E6F7F4"/>
<path d="M63.5456 74.721L63.5459 74.7212C64.7903 75.9114 64.8693 77.7089 63.7038 78.9528L63.7036 78.953C62.5228 80.2114 60.7342 80.2923 59.4987 79.1125L59.4985 79.1122C58.2549 77.9228 58.1752 76.1269 59.3383 74.8831C60.4952 73.6175 62.3139 73.5447 63.5456 74.721Z" fill="#E6F7F4" stroke="#E6F7F4"/>
<path d="M74.0844 93.8647L74.0844 93.8648L74.0793 93.8598C72.8704 92.6723 72.7844 90.844 73.9889 89.6254C75.171 88.4012 76.9862 88.3226 78.2195 89.5341C79.4321 90.7251 79.5103 92.5231 78.3124 93.7661L78.3124 93.7661L78.3076 93.771C77.0951 94.995 75.3136 95.0386 74.0844 93.8647Z" fill="#E6F7F4" stroke="#E6F7F4"/>
<path d="M73.9841 79.0189L73.984 79.0189L73.9793 79.014C72.7885 77.7784 72.8244 75.9803 74.0444 74.7819C75.2712 73.5769 77.0603 73.6136 78.2496 74.8477C79.4396 76.0824 79.4046 77.8789 78.187 79.0773C76.9816 80.2917 75.1938 80.2402 73.9841 79.0189Z" fill="#E6F7F4" stroke="#E6F7F4"/>
<path d="M5.25508 104.36C6.44585 105.595 6.40998 107.394 5.18997 108.592C3.96319 109.797 2.17401 109.76 0.984668 108.526C-0.2061 107.291 -0.170229 105.493 1.04978 104.294C2.27656 103.089 4.06574 103.126 5.25508 104.36Z" fill="#E6F7F4" stroke="#E6F7F4"/>
<path d="M5.20234 89.5363C6.42649 90.7411 6.42004 92.5363 5.23957 93.7635C4.04311 95.036 2.25146 95.0295 1.03197 93.8316C-0.184683 92.6365 -0.228853 90.8061 0.999356 89.5947C2.18535 88.369 4.00119 88.3262 5.20234 89.5363Z" fill="#E6F7F4" stroke="#E6F7F4"/>
<path d="M19.8423 108.514L19.8421 108.515C19.2462 109.132 18.4993 109.47 17.7328 109.483C16.9667 109.496 16.2206 109.184 15.6321 108.575C14.421 107.381 14.3778 105.556 15.6018 104.346C16.7674 103.11 18.5835 103.083 19.8049 104.282C21.0323 105.488 21.0258 107.286 19.8423 108.514Z" fill="#E6F7F4" stroke="#E6F7F4"/>
<path d="M5.23751 79.0138L5.23755 79.0138L5.23273 79.0187C4.63727 79.6198 3.89815 79.9492 3.13571 79.9578C2.37276 79.9665 1.62942 79.6533 1.02976 79.0491C-0.191732 77.8468 -0.192139 76.0202 0.997196 74.817C2.19057 73.5813 4.00808 73.5807 5.20257 74.7841C6.42752 75.9898 6.42027 77.7865 5.23751 79.0138Z" fill="#E6F7F4" stroke="#E6F7F4"/>
<path d="M19.7594 89.4733L19.7596 89.4735C21.0033 90.663 21.0829 92.4591 19.9197 93.7029C18.7364 94.9948 16.9493 95.0687 15.6896 93.8974L15.6896 93.8974L15.6845 93.8926C14.4408 92.7031 14.3612 90.907 15.5245 89.6633C16.7053 88.374 18.5237 88.2932 19.7594 89.4733Z" fill="#E6F7F4" stroke="#E6F7F4"/>
<path d="M34.4752 108.542L34.4753 108.542L34.4704 108.547C33.257 109.772 31.4715 109.816 30.2422 108.608C29.0257 107.413 28.9821 105.585 30.1794 104.374C31.3689 103.142 33.1843 103.106 34.4101 104.31C35.6301 105.509 35.666 107.307 34.4752 108.542Z" fill="#E6F7F4" stroke="#E6F7F4"/>
<path d="M88.6181 79.0514L88.618 79.0514L88.6132 79.0465C87.3982 77.8199 87.3896 76.0211 88.6132 74.8144C89.8074 73.5803 91.6249 73.5814 92.8186 74.7865C94.0344 76.0139 94.0422 77.8143 92.8162 79.021C92.2187 79.623 91.4788 79.9429 90.7187 79.9472C89.958 79.9515 89.2168 79.6395 88.6181 79.0514Z" fill="#E6F7F4" stroke="#E6F7F4"/>
<path d="M107.419 89.5339C108.639 90.7323 108.675 92.5304 107.484 93.7659C106.295 95 104.506 95.0367 103.279 93.8317C102.063 92.6367 102.019 90.8086 103.216 89.5972C104.406 88.3656 106.193 88.3297 107.419 89.5339Z" fill="#E6F7F4" stroke="#E6F7F4"/>
<path d="M117.835 108.547L117.835 108.547L117.83 108.542C116.646 107.314 116.64 105.516 117.867 104.31C119.086 103.113 120.876 103.106 122.073 104.348C123.255 105.575 123.263 107.372 122.01 108.578C120.836 109.789 119.047 109.772 117.835 108.547Z" fill="#E6F7F4" stroke="#E6F7F4"/>
<path d="M103.2 79.0467L103.2 79.0467L103.195 79.0418C102.013 77.8146 102.006 76.0179 103.23 74.8122C104.45 73.5838 106.241 73.5775 107.438 74.8196C108.621 76.0468 108.628 77.8435 107.403 79.0491C106.178 80.284 104.39 80.2477 103.2 79.0467Z" fill="#E6F7F4" stroke="#E6F7F4"/>
<path d="M117.699 89.699L117.7 89.6984C118.84 88.4153 120.658 88.2537 121.906 89.41C123.174 90.5603 123.331 92.3854 122.19 93.6413C121.047 94.925 119.262 95.079 117.99 93.9321C116.71 92.8029 116.568 90.9761 117.699 89.699Z" fill="#E6F7F4" stroke="#E6F7F4"/>
<path d="M132.517 108.641L132.516 108.641C131.272 107.451 131.193 105.653 132.359 104.41L132.359 104.409C133.54 103.151 135.328 103.07 136.564 104.25L136.564 104.25C137.808 105.44 137.887 107.238 136.722 108.482L136.721 108.482C135.541 109.74 133.752 109.821 132.517 108.641Z" fill="#E6F7F4" stroke="#E6F7F4"/>
<path d="M122.021 74.7866C123.237 76.014 123.244 77.8144 122.018 79.0211C120.8 80.2487 119.01 80.2558 117.813 79.0162C116.6 77.7888 116.593 75.9901 117.818 74.7842C119.012 73.581 120.827 73.5818 122.021 74.7866Z" fill="#E6F7F4" stroke="#E6F7F4"/>
<path d="M136.605 93.8645L136.605 93.8647C135.378 95.0361 133.593 94.9991 132.405 93.7661C131.214 92.5302 131.249 90.7301 132.5 89.5318C133.723 88.3324 135.543 88.3616 136.708 89.6328C137.895 90.8693 137.856 92.6677 136.605 93.8645Z" fill="#E6F7F4" stroke="#E6F7F4"/>
<path d="M151.296 108.542L151.296 108.542L151.291 108.547C150.077 109.772 148.292 109.816 147.063 108.608C145.846 107.413 145.802 105.585 147 104.374C148.189 103.142 150.005 103.106 151.231 104.31C152.451 105.509 152.486 107.307 151.296 108.542Z" fill="#E6F7F4" stroke="#E6F7F4"/>
<path d="M136.544 74.721L136.544 74.7212C137.789 75.9114 137.868 77.7089 136.702 78.9527L136.702 78.953C135.521 80.2114 133.733 80.2923 132.497 79.1125L132.497 79.1122C131.253 77.9228 131.174 76.1269 132.337 74.8832C133.494 73.6175 135.312 73.5447 136.544 74.721Z" fill="#E6F7F4" stroke="#E6F7F4"/>
<path d="M147.105 93.8647L147.105 93.8647L147.1 93.8598C145.891 92.6723 145.805 90.844 147.009 89.6254C148.191 88.4012 150.007 88.3226 151.24 89.5341C152.452 90.7252 152.53 92.5231 151.333 93.7661L151.333 93.7661L151.328 93.771C150.115 94.995 148.334 95.0386 147.105 93.8647Z" fill="#E6F7F4" stroke="#E6F7F4"/>
<path d="M146.978 79.014C145.787 77.7784 145.823 75.9803 147.043 74.7819C148.27 73.5769 150.059 73.6136 151.248 74.8477C152.439 76.0832 152.403 77.8813 151.183 79.0797L150.833 78.723L151.183 79.0797C149.956 80.2848 148.167 80.2481 146.978 79.014Z" fill="#E6F7F4" stroke="#E6F7F4"/>
<path d="M92.8632 108.514L92.8631 108.515C92.2686 109.131 91.5291 109.47 90.7643 109.483C89.9992 109.496 89.255 109.182 88.6555 108.578C87.4412 107.383 87.3979 105.554 88.6253 104.343C89.8147 103.114 91.6007 103.079 92.8258 104.282C94.0532 105.488 94.0467 107.286 92.8632 108.514Z" fill="#E6F7F4" stroke="#E6F7F4"/>
<path d="M92.7799 89.4734L92.7802 89.4737C94.0246 90.6638 94.1036 92.4613 92.9381 93.7052L92.9379 93.7055C91.7571 94.9638 89.9685 95.0448 88.7331 93.8649L88.7328 93.8647C87.4892 92.6752 87.4095 90.8793 88.5726 89.6356C89.7295 88.3699 91.5482 88.2971 92.7799 89.4734Z" fill="#E6F7F4" stroke="#E6F7F4"/>
<path d="M107.496 108.542L107.496 108.542L107.486 108.552C106.252 109.765 104.468 109.822 103.26 108.606C102.046 107.411 102.003 105.584 103.2 104.374C104.389 103.142 106.205 103.106 107.43 104.31C108.65 105.509 108.686 107.307 107.496 108.542Z" fill="#E6F7F4" stroke="#E6F7F4"/>
<path d="M44.8252 49.5221C46.0254 50.765 47.8135 50.7504 49.0558 49.5293L44.8252 49.5221ZM44.8252 49.5221C43.6117 48.2947 43.6048 46.4959 44.83 45.29C46.0518 44.0588 47.8395 44.0597 49.0606 45.2924C50.2772 46.5207 50.2843 48.3225 49.0559 49.5292L44.8252 49.5221Z" fill="#E6F7F4" stroke="#E6F7F4"/>
<path d="M63.7309 64.2363L63.7309 64.2363L63.7261 64.2412C63.119 64.8541 62.3754 65.191 61.6104 65.2083C60.8439 65.2256 60.0991 64.9207 59.4978 64.33C58.2888 63.1425 58.2028 61.3142 59.4073 60.0956C60.5894 58.8714 62.4047 58.7928 63.638 60.0043C64.8505 61.1954 64.9288 62.9933 63.7309 64.2363Z" fill="#E6F7F4" stroke="#E6F7F4"/>
<path d="M15.6195 5.27205L15.6195 5.27208L15.6147 5.26722C14.3997 4.04058 14.3911 2.24177 15.6147 1.03509C16.8089 -0.199041 18.6264 -0.197966 19.82 1.00712C21.0358 2.23456 21.0436 4.03494 19.8176 5.24163C19.2202 5.84371 18.4803 6.16361 17.7202 6.16792C16.9594 6.17224 16.2183 5.86021 15.6195 5.27205Z" fill="#E6F7F4" stroke="#E6F7F4"/>
<path d="M34.3711 15.7446C35.5911 16.943 35.627 18.741 34.4362 19.9764C33.2469 21.2104 31.4577 21.2471 30.2309 20.0422C29.0153 18.8481 28.9709 17.0217 30.1657 15.8104C31.3312 14.5718 33.1489 14.5441 34.3711 15.7446Z" fill="#E6F7F4" stroke="#E6F7F4"/>
<path d="M44.8196 34.7491C43.636 33.521 43.6295 31.7227 44.8569 30.5171C46.0761 29.3195 47.8656 29.3131 49.0623 30.5548C50.2446 31.7816 50.2528 33.579 48.9997 34.7844C47.797 36.0249 46.0048 35.9789 44.8196 34.7491Z" fill="#E6F7F4" stroke="#E6F7F4"/>
<path d="M59.5373 49.6184L59.537 49.6181C58.2926 48.4279 58.2136 46.6304 59.3791 45.3866L59.3793 45.3863C60.5604 44.1277 62.3768 44.0473 63.6119 45.2268L63.6122 45.2271C64.8566 46.4173 64.9356 48.2148 63.7701 49.4586L63.7702 49.4587L63.7651 49.4638C62.5602 50.7132 60.7752 50.8005 59.5373 49.6184Z" fill="#E6F7F4" stroke="#E6F7F4"/>
<path d="M78.3364 64.264L78.3365 64.264L78.3317 64.2689C77.1183 65.4939 75.3328 65.5373 74.1035 64.3297C72.887 63.1347 72.8434 61.3065 74.0407 60.0952C75.2302 58.8634 77.0455 58.8278 78.2713 60.0319C79.4913 61.2303 79.5272 63.0284 78.3364 64.264Z" fill="#E6F7F4" stroke="#E6F7F4"/>
<path d="M30.2018 5.26695L30.2017 5.26698L30.197 5.26205C29.015 4.03567 29.007 2.24057 30.2295 1.035C31.4248 -0.200138 33.2461 -0.198494 34.4397 1.03994C35.6224 2.26713 35.6297 4.0638 34.4047 5.26939C33.1791 6.50423 31.3914 6.46789 30.2018 5.26695Z" fill="#E6F7F4" stroke="#E6F7F4"/>
<path d="M44.6516 15.9377L44.6521 15.9372C45.7926 14.6541 47.6098 14.4925 48.8586 15.6488C50.1261 16.7991 50.2831 18.6241 49.1421 19.8801C47.9984 21.1645 46.2124 21.3179 44.9402 20.1687L44.9402 20.1687L44.9397 20.1682C43.6668 19.015 43.5162 17.2188 44.6516 15.9377Z" fill="#E6F7F4" stroke="#E6F7F4"/>
<path d="M59.3483 30.6162L59.3486 30.6159C60.5294 29.3576 62.318 29.2766 63.5534 30.4565L63.5537 30.4567C64.7981 31.6469 64.8771 33.4444 63.7116 34.6883L63.7114 34.6886C62.5379 35.9391 60.7469 36.0641 59.5039 34.8455C58.2618 33.6553 58.1836 31.8593 59.3483 30.6162Z" fill="#E6F7F4" stroke="#E6F7F4"/>
<path d="M74.0458 49.4921L74.0457 49.492C72.8549 48.2564 72.8908 46.4584 74.1108 45.2601C75.3376 44.055 77.1267 44.0918 78.316 45.3258C79.506 46.5605 79.471 48.3569 78.2534 49.5553C77.0543 50.7634 75.263 50.7541 74.0458 49.4921Z" fill="#E6F7F4" stroke="#E6F7F4"/>
<path d="M49.0217 1.035C50.2375 2.26247 50.2453 4.06287 49.0193 5.26958C48.422 5.8715 47.6812 6.19238 46.919 6.19238C46.1558 6.19238 45.4141 5.87064 44.8163 5.26715C43.6013 4.0405 43.5927 2.24167 44.8163 1.03497C46.0141 -0.203001 47.8041 -0.194259 49.0217 1.035Z" fill="#E6F7F4" stroke="#E6F7F4"/>
<path d="M59.3541 19.9742C58.1654 18.7384 58.2019 16.9399 59.4517 15.7424C60.6751 14.543 62.4948 14.5723 63.6593 15.8433C64.8455 17.079 64.8082 18.876 63.5593 20.0727C62.3322 21.2757 60.5425 21.2381 59.3541 19.9742Z" fill="#E6F7F4" stroke="#E6F7F4"/>
<path d="M78.2857 34.7493L78.2857 34.7494L78.2809 34.7542C77.0675 35.9792 75.282 36.0226 74.0527 34.8151C72.8362 33.6201 72.7926 31.792 73.99 30.5806C75.1794 29.3489 76.9947 29.3133 78.2205 30.5174C79.4405 31.7157 79.4764 33.5138 78.2857 34.7493Z" fill="#E6F7F4" stroke="#E6F7F4"/>
<path d="M63.5456 0.940866L63.5459 0.941125C64.7903 2.13128 64.8693 3.92871 63.7038 5.17252L63.7036 5.17279C62.5227 6.43107 60.7342 6.51203 59.4988 5.33225L59.4985 5.33199C58.2549 4.14261 58.1751 2.34673 59.3383 1.10301C60.4952 -0.162552 62.3139 -0.235376 63.5456 0.940866Z" fill="#E6F7F4" stroke="#E6F7F4"/>
<path d="M78.2845 19.9769L78.2846 19.977L78.2798 19.9818C77.0739 21.1992 75.2883 21.2855 74.0515 20.0707C72.8425 18.8831 72.7565 17.0547 73.961 15.8361C75.1432 14.6119 76.9584 14.5334 78.1917 15.7449C79.4042 16.9359 79.4824 18.7339 78.2845 19.9769Z" fill="#E6F7F4" stroke="#E6F7F4"/>
<path d="M73.9841 5.23861L73.984 5.23864L73.9793 5.23371C72.7885 3.99816 72.8244 2.2001 74.0444 1.00171C75.2712 -0.203336 77.0603 -0.166624 78.2496 1.06745C79.4396 2.30218 79.4046 4.09866 78.187 5.29705C76.9816 6.51144 75.1938 6.45992 73.9841 5.23861Z" fill="#E6F7F4" stroke="#E6F7F4"/>
<path d="M0.966018 60.0979C2.15185 58.8391 3.97136 58.7953 5.17375 60.0067C6.38316 61.197 6.46115 62.9918 5.26647 64.2339C4.07733 65.4987 2.28603 65.5355 1.05885 64.33C-0.149355 63.1432 -0.236031 61.3165 0.966018 60.0979Z" fill="#E6F7F4" stroke="#E6F7F4"/>
<path d="M5.23703 45.2973C6.41979 46.5246 6.42705 48.3213 5.2021 49.5269C3.98295 50.7554 2.19141 50.7617 0.994359 49.5196C-0.188228 48.2925 -0.195023 46.498 0.999145 45.2924C2.21834 44.0616 4.03919 44.0545 5.23703 45.2973Z" fill="#E6F7F4" stroke="#E6F7F4"/>
<path d="M19.992 64.131L19.9871 64.1368L19.982 64.1423C18.814 65.4198 17.0305 65.58 15.7552 64.428L15.7552 64.428L15.7546 64.4275C14.4851 63.2773 14.3272 61.4509 15.469 60.1942C16.6081 58.9149 18.4207 58.7528 19.6685 59.9035C20.9838 61.0386 21.083 62.8627 19.992 64.131Z" fill="#E6F7F4" stroke="#E6F7F4"/>
<path d="M5.26764 30.5855C6.45606 31.821 6.41945 33.6175 5.20022 34.8151C3.97344 36.0201 2.18426 35.9834 0.994924 34.7493C-0.195847 33.5138 -0.159976 31.7157 1.06004 30.5174C2.27953 29.3195 4.07119 29.3129 5.26764 30.5855Z" fill="#E6F7F4" stroke="#E6F7F4"/>
<path d="M15.5716 45.3254L15.9316 45.6723L15.5716 45.3253C16.7575 44.0949 18.5766 44.0503 19.7793 45.262C20.9969 46.4604 21.032 48.2568 19.842 49.4915C18.6527 50.7256 16.8635 50.7623 15.6367 49.5573C14.4167 48.3589 14.3808 46.5609 15.5716 45.3254Z" fill="#E6F7F4" stroke="#E6F7F4"/>
<path d="M34.4446 64.2642L34.4446 64.2643L34.4398 64.2691C33.8443 64.8703 33.1052 65.1997 32.3427 65.2083C31.5798 65.217 30.8365 64.9038 30.2368 64.2996C29.0153 63.0973 29.0149 61.2707 30.2042 60.0675C31.3976 58.8317 33.2151 58.8312 34.4096 60.0346C35.6346 61.2403 35.6273 63.037 34.4446 64.2642Z" fill="#E6F7F4" stroke="#E6F7F4"/>
<path d="M0.999357 15.8059C2.18535 14.5802 4.00118 14.5374 5.20233 15.7474C6.42649 16.9523 6.42004 18.7474 5.23958 19.9745C4.65626 20.5949 3.91486 20.9325 3.14866 20.9454C2.38205 20.9584 1.63046 20.6457 1.02954 20.0402C-0.184742 18.8451 -0.228033 17.0164 0.999357 15.8059Z" fill="#E6F7F4" stroke="#E6F7F4"/>
<path d="M19.8525 34.7491L19.8525 34.7491L19.8477 34.754C19.2523 35.3552 18.5131 35.6845 17.7507 35.6932C16.9878 35.7018 16.2444 35.3887 15.6448 34.7844C14.4313 33.5901 14.3873 31.763 15.6121 30.5524C16.7849 29.3085 18.6014 29.3248 19.8151 30.5171C21.0425 31.7227 21.036 33.521 19.8525 34.7491Z" fill="#E6F7F4" stroke="#E6F7F4"/>
<path d="M30.2761 49.6184L30.2758 49.6181C29.0314 48.4279 28.9524 46.6304 30.1179 45.3866L30.1181 45.3863C31.2992 44.1277 33.1156 44.0473 34.3507 45.2268L34.351 45.2271C35.5954 46.4173 35.6744 48.2148 34.5089 49.4586L34.509 49.4587L34.504 49.4638C33.299 50.7132 31.514 50.8005 30.2761 49.6184Z" fill="#E6F7F4" stroke="#E6F7F4"/>
<path d="M44.8266 64.3018L44.8265 64.3018L44.8217 64.2969C43.6059 63.0695 43.5981 61.2691 44.8241 60.0624C46.046 58.8312 47.8337 58.832 49.0548 60.0648C50.2714 61.2931 50.2784 63.0951 49.05 64.3018L49.05 64.3018L49.0452 64.3064C48.434 64.891 47.689 65.2012 46.9279 65.2012C46.1661 65.2012 45.4257 64.8904 44.8266 64.3018Z" fill="#E6F7F4" stroke="#E6F7F4"/>
<path d="M5.2375 5.23402L5.23754 5.23406L5.23272 5.23892C4.63726 5.84005 3.89814 6.1694 3.13571 6.17805C2.37277 6.1867 1.62943 5.87354 1.02977 5.26935C-0.191742 4.0671 -0.192142 2.24058 0.997228 1.03743C2.1906 -0.198251 4.00809 -0.198809 5.20257 1.00457C6.42753 2.21016 6.42027 4.00683 5.2375 5.23402Z" fill="#E6F7F4" stroke="#E6F7F4"/>
<path d="M19.7264 15.679L19.7264 15.6789L19.7319 15.6842C20.9763 16.8744 21.0554 18.6718 19.8899 19.9157L19.8896 19.9159C18.7088 21.1742 16.9202 21.2552 15.6848 20.0754L15.6845 20.0751C14.4401 18.885 14.3611 17.0875 15.5266 15.8437C16.6828 14.6097 18.4955 14.5371 19.7264 15.679Z" fill="#E6F7F4" stroke="#E6F7F4"/>
<path d="M34.4855 34.7493L34.4855 34.7494L34.4807 34.7542C33.2673 35.9792 31.4818 36.0226 30.2524 34.8151C29.0359 33.6201 28.9923 31.792 30.1897 30.5806C31.3792 29.3489 33.1945 29.3133 34.4204 30.5174C35.6404 31.7157 35.6763 33.5138 34.4855 34.7493Z" fill="#E6F7F4" stroke="#E6F7F4"/>
<path d="M117.893 49.5245C116.677 48.2971 116.669 46.4967 117.895 45.29C119.117 44.0588 120.905 44.0596 122.126 45.2924C123.342 46.5199 123.35 48.3203 122.124 49.5269C120.902 50.7581 119.114 50.7573 117.893 49.5245Z" fill="#E6F7F4" stroke="#E6F7F4"/>
<path d="M136.802 64.2363L136.802 64.2364C135.589 65.4945 133.8 65.5388 132.569 64.33C131.36 63.1425 131.274 61.3142 132.479 60.0956C133.661 58.8714 135.476 58.7928 136.709 60.0043C137.922 61.1954 138 62.9933 136.802 64.2363Z" fill="#E6F7F4" stroke="#E6F7F4"/>
<path d="M88.6181 5.27205L88.618 5.27208L88.6132 5.26722C87.3982 4.04058 87.3896 2.24177 88.6132 1.03509C89.8074 -0.199041 91.6249 -0.197967 92.8186 1.00712C94.0344 2.23456 94.0422 4.03495 92.8162 5.24165C92.2187 5.84372 91.4788 6.16361 90.7187 6.16792C89.958 6.17224 89.2168 5.86021 88.6181 5.27205Z" fill="#E6F7F4" stroke="#E6F7F4"/>
<path d="M107.392 15.7446C108.612 16.943 108.647 18.7409 107.457 19.9764C106.267 21.2104 104.478 21.2471 103.251 20.0422C102.035 18.8473 101.991 17.0192 103.189 15.8079C104.378 14.5763 106.166 14.5405 107.392 15.7446Z" fill="#E6F7F4" stroke="#E6F7F4"/>
<path d="M117.845 34.754L117.845 34.754L117.84 34.7491C116.657 33.521 116.65 31.7227 117.877 30.5171C119.097 29.3195 120.886 29.3131 122.083 30.5548C123.264 31.7807 123.273 33.5765 122.023 34.782C120.842 36.0321 119.05 35.9708 117.845 34.754Z" fill="#E6F7F4" stroke="#E6F7F4"/>
<path d="M132.603 49.6183L132.602 49.6181C131.358 48.4279 131.279 46.6304 132.444 45.3866L132.445 45.3863C133.626 44.1277 135.442 44.0473 136.677 45.2269L136.677 45.2271C137.922 46.4173 138.001 48.2148 136.835 49.4586L136.835 49.4586L136.83 49.4638C135.625 50.7132 133.841 50.8005 132.603 49.6183Z" fill="#E6F7F4" stroke="#E6F7F4"/>
<path d="M151.408 64.264L151.408 64.264L151.403 64.2689C150.19 65.4939 148.404 65.5373 147.175 64.3297C145.958 63.1347 145.915 61.3065 147.112 60.0952C148.302 58.8634 150.117 58.8278 151.343 60.0319C152.563 61.2303 152.599 63.0284 151.408 64.264Z" fill="#E6F7F4" stroke="#E6F7F4"/>
<path d="M107.403 5.26936C106.178 6.50423 104.39 6.4679 103.2 5.26694L103.2 5.26697L103.196 5.26204C102.013 4.03485 102.006 2.23819 103.23 1.03261C104.45 -0.195768 106.241 -0.202071 107.438 1.03994C108.621 2.26713 108.628 4.06377 107.403 5.26936Z" fill="#E6F7F4" stroke="#E6F7F4"/>
<path d="M117.672 15.9377L117.672 15.9372C118.813 14.6541 120.63 14.4924 121.878 15.6488C123.146 16.7991 123.303 18.6241 122.162 19.8801C121.018 21.1645 119.232 21.3179 117.96 20.1687L117.96 20.1687L117.96 20.1682C116.687 19.015 116.536 17.2188 117.672 15.9377Z" fill="#E6F7F4" stroke="#E6F7F4"/>
<path d="M132.369 30.6162L132.369 30.616C133.55 29.3576 135.338 29.2766 136.574 30.4565L136.574 30.4567C137.818 31.6469 137.897 33.4444 136.732 34.6883L136.732 34.6886C135.558 35.9391 133.767 36.0641 132.524 34.8455C131.282 33.6553 131.204 31.8593 132.369 30.6162Z" fill="#E6F7F4" stroke="#E6F7F4"/>
<path d="M147.109 49.4896C145.92 48.2541 145.957 46.4576 147.176 45.2601C148.403 44.0551 150.192 44.0918 151.382 45.3258C152.573 46.5613 152.537 48.3593 151.317 49.5577C150.097 50.7556 148.305 50.7621 147.109 49.4896Z" fill="#E6F7F4" stroke="#E6F7F4"/>
<path d="M117.815 1.03498C119.01 -0.199447 120.83 -0.198629 122.023 1.03743C123.237 2.26484 123.244 4.06367 122.018 5.26958C120.8 6.49724 119.01 6.50435 117.813 5.26472C116.6 4.03813 116.593 2.24088 117.815 1.03498Z" fill="#E6F7F4" stroke="#E6F7F4"/>
<path d="M132.375 19.9742C131.186 18.7384 131.222 16.9399 132.472 15.7424C133.696 14.543 135.515 14.5723 136.68 15.8434C137.866 17.079 137.829 18.8759 136.58 20.0726C135.353 21.2757 133.563 21.2381 132.375 19.9742Z" fill="#E6F7F4" stroke="#E6F7F4"/>
<path d="M147.073 34.8151C145.856 33.6201 145.813 31.7919 147.01 30.5806C148.2 29.3489 150.015 29.3133 151.241 30.5174C152.461 31.7157 152.497 33.5138 151.306 34.7493L151.306 34.7494L151.301 34.7542C150.088 35.9792 148.302 36.0226 147.073 34.8151Z" fill="#E6F7F4" stroke="#E6F7F4"/>
<path d="M136.544 0.940872L136.544 0.941132C137.789 2.13128 137.868 3.92871 136.702 5.17251L136.702 5.17279C135.521 6.43107 133.733 6.51203 132.497 5.33224L132.497 5.33199C131.253 4.14261 131.174 2.34675 132.337 1.10304C133.494 -0.162552 135.312 -0.235387 136.544 0.940872Z" fill="#E6F7F4" stroke="#E6F7F4"/>
<path d="M151.305 19.9769L151.305 19.9769L151.3 19.9818C150.094 21.1993 148.309 21.2855 147.072 20.0707C145.863 18.8831 145.777 17.0548 146.981 15.8361C148.164 14.6119 149.979 14.5334 151.212 15.7449C152.424 16.9359 152.503 18.7339 151.305 19.9769Z" fill="#E6F7F4" stroke="#E6F7F4"/>
<path d="M146.978 5.23372C145.787 3.99817 145.823 2.20009 147.043 1.0017C148.27 -0.203331 150.059 -0.166621 151.248 1.06744C152.439 2.30299 152.403 4.10106 151.183 5.29946C149.956 6.50449 148.167 6.46778 146.978 5.23372Z" fill="#E6F7F4" stroke="#E6F7F4"/>
<path d="M93.0444 64.1366L93.0439 64.1372C91.9003 65.4236 90.1131 65.5778 88.8401 64.428L88.8401 64.428L88.8396 64.4275C87.5701 63.2773 87.4122 61.451 88.5539 60.1943C89.6938 58.9142 91.5078 58.7527 92.7558 59.9056C94.0341 61.035 94.1755 62.8603 93.0444 64.1366Z" fill="#E6F7F4" stroke="#E6F7F4"/>
<path d="M88.7021 49.5573C87.4821 48.3589 87.4462 46.5609 88.637 45.3254C89.8229 44.0949 91.6419 44.0503 92.8447 45.262C94.0623 46.4604 94.0974 48.2568 92.9074 49.4915C91.7181 50.7256 89.9289 50.7623 88.7021 49.5573Z" fill="#E6F7F4" stroke="#E6F7F4"/>
<path d="M103.309 64.2996C102.087 63.0973 102.087 61.2707 103.276 60.0675C104.469 58.8317 106.287 58.8312 107.481 60.0346C108.706 61.2403 108.699 63.037 107.516 64.2642C106.327 65.4986 104.535 65.5356 103.309 64.2996Z" fill="#E6F7F4" stroke="#E6F7F4"/>
<path d="M92.8734 34.7491L92.8735 34.7491L92.8686 34.754C92.2732 35.3552 91.5341 35.6845 90.7717 35.6932C90.0087 35.7018 89.2654 35.3887 88.6657 34.7844C87.4515 33.5893 87.4082 31.7605 88.6356 30.5499C89.8323 29.3131 91.6185 29.3211 92.8361 30.5171C94.0634 31.7227 94.0569 33.521 92.8734 34.7491Z" fill="#E6F7F4" stroke="#E6F7F4"/>
<path d="M103.346 49.6229L103.346 49.623L103.341 49.6181C102.097 48.4279 102.018 46.6304 103.183 45.3866L103.184 45.3863C104.365 44.1277 106.181 44.0473 107.416 45.2268L107.416 45.2271C108.661 46.4173 108.74 48.2148 107.574 49.4586L107.574 49.4587L107.569 49.4639C106.977 50.0786 106.241 50.4228 105.478 50.4529C104.714 50.4831 103.963 50.1963 103.346 49.6229Z" fill="#E6F7F4" stroke="#E6F7F4"/>
<path d="M117.898 64.3018L117.898 64.3018L117.893 64.297C116.677 63.0695 116.669 61.2691 117.895 60.0624C119.117 58.8312 120.905 58.832 122.126 60.0648C123.343 61.2931 123.35 63.0951 122.121 64.3018C120.901 65.501 119.119 65.501 117.898 64.3018Z" fill="#E6F7F4" stroke="#E6F7F4"/>
<path d="M92.7468 15.679L92.7468 15.6789L92.7523 15.6842C93.9967 16.8744 94.0757 18.6718 92.9103 19.9157L92.91 19.9159C91.7292 21.1742 89.9407 21.2552 88.7053 20.0754L88.705 20.0751C87.4606 18.885 87.3816 17.0875 88.5471 15.8437C89.7033 14.6097 91.5159 14.5371 92.7468 15.679Z" fill="#E6F7F4" stroke="#E6F7F4"/>
<path d="M107.506 34.7493L107.506 34.7495L107.496 34.7589C106.263 35.9716 104.478 36.0294 103.27 34.8127C102.056 33.6177 102.014 31.7912 103.21 30.5807C104.4 29.3489 106.215 29.3133 107.441 30.5174C108.661 31.7158 108.697 33.5138 107.506 34.7493Z" fill="#E6F7F4" stroke="#E6F7F4"/>
<path d="M161.617 79.0514L161.617 79.0514L161.612 79.0465C160.397 77.8199 160.389 76.0211 161.612 74.8144C162.806 73.5803 164.624 73.5814 165.818 74.7865C167.033 76.0139 167.041 77.8143 165.815 79.021C165.218 79.623 164.478 79.9429 163.718 79.9472C162.957 79.9515 162.216 79.6395 161.617 79.0514Z" fill="#E6F7F4" stroke="#E6F7F4"/>
<path d="M165.884 108.514L165.884 108.514L165.879 108.519C165.284 109.12 164.545 109.45 163.782 109.458C163.019 109.467 162.276 109.154 161.676 108.55C160.461 107.354 160.418 105.523 161.648 104.313C162.838 103.114 164.622 103.079 165.847 104.282C167.074 105.488 167.068 107.286 165.884 108.514Z" fill="#E6F7F4" stroke="#E6F7F4"/>
<path d="M165.801 89.4734L165.801 89.4736C167.045 90.6638 167.124 92.4613 165.959 93.7052L165.959 93.7055C164.778 94.9638 162.989 95.0448 161.754 93.8649L161.753 93.8647C160.51 92.6752 160.43 90.8793 161.593 89.6356C162.75 88.3699 164.569 88.2971 165.801 89.4734Z" fill="#E6F7F4" stroke="#E6F7F4"/>
<path d="M161.617 5.27204L161.617 5.27207L161.612 5.2672C160.397 4.04056 160.389 2.24173 161.612 1.03504C162.806 -0.199105 164.624 -0.198032 165.818 1.00707C167.033 2.23453 167.041 4.03493 165.815 5.24164C165.218 5.84371 164.478 6.16361 163.718 6.16792C162.957 6.17224 162.216 5.8602 161.617 5.27204Z" fill="#E6F7F4" stroke="#E6F7F4"/>
<path d="M166.116 64.1366L166.116 64.1372C164.972 65.4236 163.185 65.5778 161.912 64.428L161.912 64.428L161.911 64.4275C160.642 63.2773 160.484 61.4509 161.626 60.1942C162.766 58.9141 164.58 58.7526 165.828 59.9056C167.106 61.035 167.248 62.8603 166.116 64.1366Z" fill="#E6F7F4" stroke="#E6F7F4"/>
<path d="M161.768 49.5573C160.548 48.3589 160.512 46.5609 161.702 45.3254C162.888 44.0949 164.707 44.0503 165.91 45.262C167.128 46.4604 167.163 48.2568 165.973 49.4915C164.783 50.7256 162.994 50.7623 161.768 49.5573Z" fill="#E6F7F4" stroke="#E6F7F4"/>
<path d="M165.894 34.7491L165.894 34.7491L165.889 34.754C165.294 35.3552 164.555 35.6845 163.792 35.6932C163.029 35.7018 162.286 35.3887 161.686 34.7844C160.472 33.5893 160.429 31.7605 161.656 30.5499C162.853 29.3131 164.639 29.3211 165.857 30.5171C167.084 31.7227 167.077 33.521 165.894 34.7491Z" fill="#E6F7F4" stroke="#E6F7F4"/>
<path d="M165.767 15.679L165.768 15.6789L165.773 15.6842C167.017 16.8744 167.096 18.6718 165.931 19.9157L165.931 19.9159C164.75 21.1742 162.961 21.2552 161.726 20.0754L161.726 20.0751C160.481 18.885 160.402 17.0875 161.568 15.8437C162.724 14.6097 164.537 14.5371 165.767 15.679Z" fill="#E6F7F4" stroke="#E6F7F4"/>
</g>
<defs>
<clipPath id="clip0_3494_55414">
<rect width="167" height="110" fill="white" transform="matrix(1 0 0 -1 0 110)"/>
</clipPath>
</defs>
</svg>
