<svg width="537" height="201" viewBox="0 0 537 201" fill="none" xmlns="http://www.w3.org/2000/svg">
<path d="M492.099 90.7324H496.877" stroke="#573240" stroke-width="0.5" stroke-linecap="round" stroke-linejoin="round"/>
<path d="M492.099 93.3042H496.877" stroke="#573240" stroke-width="0.5" stroke-linecap="round" stroke-linejoin="round"/>
<path d="M510.296 106.568C518.11 106.568 524.444 100.228 524.444 92.4075C524.444 84.5869 518.11 78.2471 510.296 78.2471C502.483 78.2471 496.149 84.5869 496.149 92.4075C496.149 100.228 502.483 106.568 510.296 106.568Z" fill="#F1B104"/>
<path fill-rule="evenodd" clip-rule="evenodd" d="M516.169 94.7131L510.779 82.1196L505.158 94.5045C505.158 94.5045 509.881 97.6309 516.169 94.7131Z" stroke="white" stroke-width="0.5" stroke-linecap="round" stroke-linejoin="round"/>
<path d="M514.565 95.1686L509.965 84.1089" stroke="white" stroke-width="0.5" stroke-linecap="round" stroke-linejoin="round"/>
<path d="M513.084 95.6241L509.085 86.0107" stroke="white" stroke-width="0.5" stroke-linecap="round" stroke-linejoin="round"/>
<path d="M511.356 95.8519L508.126 88.0859" stroke="white" stroke-width="0.5" stroke-linecap="round" stroke-linejoin="round"/>
<path d="M509.628 95.852L507.216 90.0532" stroke="white" stroke-width="0.5" stroke-linecap="round" stroke-linejoin="round"/>
<path d="M507.777 95.5105L506.316 91.9995" stroke="white" stroke-width="0.5" stroke-linecap="round" stroke-linejoin="round"/>
<path d="M502.588 98.6885H518.005" stroke="white" stroke-width="0.612313" stroke-linecap="round"/>
<path d="M508.943 100.675H506.238V102.625H508.943V100.675Z" fill="#82CDC5"/>
<path d="M511.649 100.675H508.943V102.625H511.649V100.675Z" fill="white"/>
<path d="M514.355 100.675H511.649V102.625H514.355V100.675Z" fill="#FF6E00"/>
<path d="M492.099 90.4927H358.186V199.876H492.099V90.4927Z" fill="#F6ACC1"/>
<path d="M360.446 199.877V195.366H418.416V199.877" stroke="#573240" stroke-width="0.5" stroke-linecap="round" stroke-linejoin="round"/>
<path d="M364.803 195.366V191.325H414.059V195.366" stroke="#573240" stroke-width="0.5" stroke-linecap="round" stroke-linejoin="round"/>
<path d="M408.972 191.06H369.89C369.259 191.06 368.747 190.547 368.747 189.915V104C368.747 103.368 369.259 102.856 369.89 102.856H408.972C409.603 102.856 410.115 103.368 410.115 104V189.915C410.115 190.547 409.603 191.06 408.972 191.06Z" fill="white"/>
<path d="M404.817 165.146H374.045C372.958 165.146 372.077 164.264 372.077 163.176V108.118C372.077 107.03 372.958 106.147 374.045 106.147H404.817C405.904 106.147 406.786 107.03 406.786 108.118V163.176C406.786 164.264 405.904 165.146 404.817 165.146Z" fill="#573240"/>
<path d="M392.929 119.484L389.431 113.2L386 119.484" stroke="white" stroke-width="0.5" stroke-linecap="round" stroke-linejoin="round"/>
<path d="M398.812 125.243H380.032C379.441 125.243 378.961 124.763 378.961 124.171V120.557C378.961 119.964 379.441 119.484 380.032 119.484H398.812C399.403 119.484 399.883 119.964 399.883 120.557V124.171C399.883 124.763 399.403 125.243 398.812 125.243Z" fill="#F1B104"/>
<path d="M402.518 142.666C403.57 142.666 404.422 141.813 404.422 140.76C404.422 139.708 403.57 138.855 402.518 138.855C401.467 138.855 400.615 139.708 400.615 140.76C400.615 141.813 401.467 142.666 402.518 142.666Z" stroke="#F1B104" stroke-width="0.612313" stroke-linecap="round"/>
<path d="M377.355 143.093L401.142 119.284" stroke="white" stroke-width="0.612313" stroke-linecap="round"/>
<path d="M388.608 137.211L398.108 127.702" stroke="white" stroke-width="0.612313" stroke-linecap="round"/>
<path d="M383.674 142.01L385.657 140.026" stroke="white" stroke-width="0.612313" stroke-linecap="round"/>
<path d="M487.736 165.146H430.58C429.441 165.146 428.518 164.222 428.518 163.082V104.921C428.518 103.781 429.441 102.856 430.58 102.856H487.736C488.875 102.856 489.799 103.781 489.799 104.921V163.082C489.799 164.222 488.875 165.146 487.736 165.146Z" fill="#573240"/>
<path d="M448.79 151.984L477.158 123.589" stroke="white" stroke-width="0.612313" stroke-linecap="round"/>
<path d="M476.422 130.743L477.965 129.199" stroke="white" stroke-width="0.612313" stroke-linecap="round"/>
<path d="M462.21 144.968L474.663 132.504" stroke="white" stroke-width="0.612313" stroke-linecap="round"/>
<path d="M439.952 133.836L451.281 122.496" stroke="white" stroke-width="0.612313" stroke-linecap="round"/>
<path d="M428.526 102.856V109.683H422.179L428.526 102.856Z" fill="#A9D8D5"/>
<path d="M428.526 109.683V115.117H423.772C422.892 115.117 422.179 114.403 422.179 113.522V109.683H428.526Z" fill="#82CDC5"/>
<path d="M434.872 102.856H428.526V109.683H434.872V102.856Z" fill="white"/>
<path d="M434.872 109.683H428.526V115.117H434.872V109.683Z" fill="#E0F1F0"/>
<path d="M441.22 102.856H434.872V109.683H441.22V102.856Z" fill="#FF8B33"/>
<path d="M441.22 109.683H434.872V115.117H441.22V109.683Z" fill="#FF6E00"/>
<path d="M447.566 102.856H441.22V109.683H447.566V102.856Z" fill="#A9D8D5"/>
<path d="M447.566 109.683H441.22V115.117H447.566V109.683Z" fill="#82CDC5"/>
<path d="M453.913 102.856H447.566V109.683H453.913V102.856Z" fill="white"/>
<path d="M453.913 109.683H447.566V115.117H453.913V109.683Z" fill="#E0F1F0"/>
<path d="M460.259 102.856H453.913V109.683H460.259V102.856Z" fill="#FF8B33"/>
<path d="M460.259 109.683H453.913V115.117H460.259V109.683Z" fill="#FF6E00"/>
<path d="M466.605 102.856H460.259V109.683H466.605V102.856Z" fill="#A9D8D5"/>
<path d="M466.605 109.683H460.259V115.117H466.605V109.683Z" fill="#82CDC5"/>
<path d="M472.952 102.856H466.605V109.683H472.952V102.856Z" fill="white"/>
<path d="M472.952 109.683H466.605V115.117H472.952V109.683Z" fill="#E0F1F0"/>
<path d="M479.298 102.856H472.952V109.683H479.298V102.856Z" fill="#FF8B33"/>
<path d="M479.298 109.683H472.952V115.117H479.298V109.683Z" fill="#FF6E00"/>
<path d="M485.645 102.856H479.298V109.683H485.645V102.856Z" fill="#A9D8D5"/>
<path d="M485.645 109.683H479.298V115.117H485.645V109.683Z" fill="#82CDC5"/>
<path d="M491.991 102.856H485.645V109.683H491.991V102.856Z" fill="white"/>
<path d="M491.991 109.683H485.645V115.117H491.991V109.683Z" fill="#E0F1F0"/>
<path d="M498.339 109.683H491.991V102.856L498.339 109.683Z" fill="#FF8B33"/>
<path d="M498.339 109.683V113.522C498.339 114.403 497.626 115.117 496.746 115.117H491.991V109.683H498.339Z" fill="#FF6E00"/>
<path d="M440.863 199.877C440.863 195.933 444.058 192.737 447.998 192.737C449.73 192.737 451.319 193.356 452.555 194.384C452.462 193.826 452.415 193.254 452.415 192.67C452.415 186.877 457.107 182.181 462.896 182.181C467.843 182.181 471.99 185.611 473.089 190.226C474.658 189.717 476.38 189.437 478.185 189.437C484.005 189.437 488.955 192.35 490.78 196.411C491.288 196.342 491.817 196.307 492.363 196.307C495.991 196.307 498.929 197.905 498.929 199.877H440.863Z" fill="#A9D8D5"/>
<path d="M476.787 194.972C476.128 196.112 474.763 196.798 474.763 196.798C474.763 196.798 474.467 195.634 475.126 194.494C475.785 193.353 476.691 192.536 477.149 192.668C477.608 192.8 477.446 193.831 476.787 194.972Z" fill="#FF6E00"/>
<path d="M450.218 187.308C451.281 188.786 451.061 190.762 451.061 190.762C451.061 190.762 449.12 190.342 448.057 188.865C446.995 187.387 446.617 185.841 447.214 185.412C447.811 184.982 449.156 185.831 450.218 187.308Z" fill="#FF6E00"/>
<path d="M450.506 196.499C451.577 197.662 451.753 199.243 451.753 199.243C451.753 199.243 450.193 198.94 449.122 197.777C448.05 196.614 447.492 195.385 447.874 195.032C448.257 194.68 449.435 195.336 450.506 196.499Z" fill="#573240"/>
<path d="M462.44 195.41C461.414 196.546 459.795 197.09 459.795 197.09C459.795 197.09 460.119 195.374 461.144 194.239C462.17 193.103 463.151 192.654 463.509 192.977C463.866 193.301 463.465 194.274 462.44 195.41Z" fill="#FF6E00"/>
<path d="M484.441 196.383C484.041 197.498 482.931 198.12 482.931 198.12C482.931 198.12 482.47 196.933 482.871 195.818C483.271 194.703 483.947 193.925 484.381 194.081C484.815 194.237 484.842 195.268 484.441 196.383Z" fill="#573240"/>
<path d="M473.724 196.243C474.348 197.579 473.972 198.91 473.972 198.91C473.972 198.91 472.584 198.077 471.961 196.742C471.337 195.406 471.226 194.212 471.712 194.075C472.199 193.937 473.1 194.908 473.724 196.243Z" fill="#573240"/>
<path d="M460.512 191.348C460.659 193.472 459.667 195.482 459.667 195.482C459.667 195.482 458.424 193.662 458.277 191.538C458.13 189.414 458.554 187.83 459.135 187.79C459.716 187.75 460.365 189.224 460.512 191.348Z" fill="#573240"/>
<path d="M488.996 193.526L505.019 193.526L498.563 145.754H498.507L488.996 193.526Z" fill="#573240"/>
<path d="M489.284 193.403L487.938 199.754" stroke="#573240" stroke-width="0.5" stroke-linecap="round" stroke-linejoin="round"/>
<path d="M505.015 193.527H534.895L524.773 145.754H498.563L505.015 193.527Z" fill="#FF6E00"/>
<path d="M536 199.877L534.655 193.526H505.019L505.875 199.877" stroke="#573240" stroke-width="0.5" stroke-linecap="round" stroke-linejoin="round"/>
<path fill-rule="evenodd" clip-rule="evenodd" d="M526.708 169.273C527.821 175.591 523.926 180.711 518.007 180.711C512.089 180.711 506.39 175.591 505.277 169.273C504.164 162.957 508.06 157.837 513.977 157.837L515.992 169.273L523.634 162.736C525.172 164.589 526.279 166.842 526.708 169.273Z" stroke="white" stroke-width="0.612313" stroke-linecap="round" stroke-linejoin="round"/>
<path fill-rule="evenodd" clip-rule="evenodd" d="M524.331 158.964L517.346 164.941L515.504 154.486C518.832 154.486 522.085 156.258 524.331 158.964Z" stroke="white" stroke-width="0.612313" stroke-linecap="round" stroke-linejoin="round"/>
<path d="M511.219 169.747C511.863 169.215 511.865 168.152 511.223 167.374C510.58 166.595 509.536 166.396 508.891 166.928C508.246 167.461 508.245 168.523 508.887 169.302C509.53 170.08 510.574 170.28 511.219 169.747Z" stroke="white" stroke-width="0.612316" stroke-linecap="round"/>
<path d="M523 175.455C523.514 174.894 523.388 173.942 522.719 173.329C522.049 172.716 521.09 172.674 520.576 173.236C520.062 173.797 520.188 174.749 520.857 175.362C521.527 175.974 522.486 176.016 523 175.455Z" stroke="white" stroke-width="0.612294" stroke-linecap="round"/>
<path d="M509.744 164.038L511.747 165.203" stroke="white" stroke-width="0.612313" stroke-linecap="round"/>
<path d="M519.172 170.46H521.771" stroke="white" stroke-width="0.612313" stroke-linecap="round"/>
<path d="M514.403 171.378L516.458 172.85" stroke="white" stroke-width="0.612313" stroke-linecap="round"/>
<path d="M510.06 173.403L512.118 173.245" stroke="white" stroke-width="0.612313" stroke-linecap="round" stroke-linejoin="round"/>
<path d="M518.27 177.527C518.642 177.12 518.615 176.487 518.207 176.114C517.8 175.741 517.167 175.769 516.794 176.177C516.421 176.584 516.449 177.216 516.857 177.589C517.264 177.962 517.897 177.935 518.27 177.527Z" stroke="white" stroke-width="0.612294" stroke-linecap="round" stroke-linejoin="round"/>
<path d="M512.867 162.014C513.24 161.607 513.212 160.974 512.804 160.601C512.397 160.228 511.765 160.256 511.392 160.663C511.019 161.071 511.047 161.703 511.454 162.076C511.861 162.449 512.494 162.421 512.867 162.014Z" stroke="white" stroke-width="0.612294" stroke-linecap="round" stroke-linejoin="round"/>
<path d="M520.986 159.411C521.359 159.004 521.331 158.372 520.924 157.999C520.516 157.626 519.884 157.653 519.511 158.061C519.138 158.468 519.166 159.101 519.573 159.474C519.98 159.847 520.613 159.819 520.986 159.411Z" stroke="white" stroke-width="0.612294" stroke-linecap="round" stroke-linejoin="round"/>
<path d="M524.674 169.434C525.047 169.027 525.019 168.394 524.612 168.021C524.205 167.648 523.572 167.676 523.199 168.083C522.826 168.491 522.854 169.123 523.261 169.496C523.669 169.869 524.301 169.841 524.674 169.434Z" stroke="white" stroke-width="0.612294" stroke-linecap="round" stroke-linejoin="round"/>
<path d="M517.923 159.208L518.668 160.859" stroke="white" stroke-width="0.612313" stroke-linecap="round" stroke-linejoin="round"/>
<path d="M513.438 175.585L514.493 177.59" stroke="white" stroke-width="0.612313" stroke-linecap="round" stroke-linejoin="round"/>
<path d="M522.231 166.159H524.089" stroke="white" stroke-width="0.612313" stroke-linecap="round" stroke-linejoin="round"/>
<path d="M460.594 69.2017V45.1499" stroke="#573240" stroke-width="0.5" stroke-linecap="round" stroke-linejoin="round"/>
<path d="M491.752 45.1499H430.189L460.971 30.1128L491.752 45.1499Z" fill="#FDE5E3"/>
<path d="M430.189 45.1499C430.189 47.3106 432.945 49.0622 436.345 49.0622C439.745 49.0622 442.502 47.3106 442.502 45.1499H430.189Z" fill="#FCD4D0"/>
<path d="M442.501 45.1499C442.501 47.3106 445.258 49.0622 448.658 49.0622C452.058 49.0622 454.814 47.3106 454.814 45.1499H442.501Z" fill="#FCD4D0"/>
<path d="M454.814 45.1499C454.814 47.3106 457.57 49.0622 460.97 49.0622C464.37 49.0622 467.127 47.3106 467.127 45.1499H454.814Z" fill="#FCD4D0"/>
<path d="M467.127 45.1499C467.127 47.3106 469.883 49.0622 473.283 49.0622C476.683 49.0622 479.44 47.3106 479.44 45.1499H467.127Z" fill="#FCD4D0"/>
<path d="M479.439 45.1499C479.439 47.3106 482.196 49.0622 485.596 49.0622C488.996 49.0622 491.752 47.3106 491.752 45.1499H479.439Z" fill="#FCD4D0"/>
<path d="M393.787 69.2017V45.1499" stroke="#573240" stroke-width="0.5" stroke-linecap="round" stroke-linejoin="round"/>
<path d="M424.945 45.1499H363.382L394.164 30.1128L424.945 45.1499Z" fill="#FDE5E3"/>
<path d="M363.382 45.1499C363.382 47.3106 366.139 49.0622 369.539 49.0622C372.939 49.0622 375.695 47.3106 375.695 45.1499H363.382Z" fill="#FCD4D0"/>
<path d="M375.695 45.1499C375.695 47.3106 378.451 49.0622 381.851 49.0622C385.251 49.0622 388.007 47.3106 388.007 45.1499H375.695Z" fill="#FCD4D0"/>
<path d="M388.007 45.1499C388.007 47.3106 390.764 49.0622 394.164 49.0622C397.564 49.0622 400.32 47.3106 400.32 45.1499H388.007Z" fill="#FCD4D0"/>
<path d="M400.32 45.1499C400.32 47.3106 403.076 49.0622 406.476 49.0622C409.876 49.0622 412.632 47.3106 412.632 45.1499H400.32Z" fill="#FCD4D0"/>
<path d="M412.633 45.1499C412.633 47.3106 415.389 49.0622 418.789 49.0622C422.189 49.0622 424.945 47.3106 424.945 45.1499H412.633Z" fill="#FCD4D0"/>
<path d="M481.542 74.3145H445.322C444.084 74.3145 443.004 73.4721 442.702 72.2703L441.992 69.4468H484.872L484.162 72.2703C483.86 73.472 482.78 74.3145 481.542 74.3145Z" fill="#F1B104"/>
<path d="M442.359 69.3749L442.371 69.4227C441.925 69.1717 441.625 68.6928 441.625 68.1442C441.625 67.3335 442.282 66.6771 443.091 66.6771C443.45 66.6771 443.778 66.8057 444.032 67.0188C444.377 66.077 445.203 65.4133 446.166 65.4133C447.04 65.4133 447.8 65.9582 448.191 66.7616C448.479 66.6171 448.797 66.5375 449.131 66.5375C449.53 66.5375 449.904 66.6514 450.232 66.8522C450.543 65.8627 451.353 65.1561 452.302 65.1561C453.296 65.1561 454.137 65.9301 454.411 66.993C454.759 66.7187 455.197 66.5546 455.674 66.5546C456.426 66.5546 457.083 66.9624 457.437 67.5698C457.617 66.2325 458.823 65.1977 460.285 65.1977C461.332 65.1977 462.247 65.7268 462.75 66.5191C463.005 66.4481 463.276 66.4101 463.556 66.4101C464.404 66.4101 465.167 66.7591 465.695 67.3127C465.765 65.8811 466.839 64.7446 468.154 64.7446C469.221 64.7446 470.13 65.4929 470.472 66.5412C470.963 66.1272 471.604 65.8762 472.305 65.8762C473.658 65.8762 474.788 66.8093 475.049 68.0487C475.468 67.4253 476.278 67.0041 477.209 67.0041C477.52 67.0041 477.818 67.0506 478.092 67.1375C478.555 66.1138 479.498 65.4133 480.586 65.4133C481.669 65.4133 482.607 66.1076 483.072 67.1241C484.134 67.4339 484.923 68.3132 485.019 69.3749H442.359Z" fill="#82CDC5"/>
<path d="M449.32 65C449.872 65 450.32 64.5523 450.32 64C450.32 63.4477 449.872 63 449.32 63C448.768 63 448.32 63.4477 448.32 64C448.32 64.5523 448.768 65 449.32 65Z" fill="#82CDC5"/>
<path d="M484.872 67.1362C485.424 67.1362 485.872 66.6885 485.872 66.1362C485.872 65.5839 485.424 65.1362 484.872 65.1362C484.319 65.1362 483.872 65.5839 483.872 66.1362C483.872 66.6885 484.319 67.1362 484.872 67.1362Z" fill="#82CDC5"/>
<path d="M471.167 65.4766C471.719 65.4766 472.167 65.0288 472.167 64.4766C472.167 63.9243 471.719 63.4766 471.167 63.4766C470.615 63.4766 470.167 63.9243 470.167 64.4766C470.167 65.0288 470.615 65.4766 471.167 65.4766Z" fill="#82CDC5"/>
<path d="M462.728 62.9756C463.28 62.9756 463.728 62.5279 463.728 61.9756C463.728 61.4233 463.28 60.9756 462.728 60.9756C462.176 60.9756 461.728 61.4233 461.728 61.9756C461.728 62.5279 462.176 62.9756 462.728 62.9756Z" fill="#82CDC5"/>
<path d="M367.974 69.4462L367.986 69.494C367.541 69.2429 367.24 68.7641 367.24 68.2155C367.24 67.4048 367.897 66.7484 368.707 66.7484C369.065 66.7484 369.393 66.877 369.648 67.09C369.993 66.1483 370.818 65.4846 371.781 65.4846C372.655 65.4846 373.415 66.0295 373.806 66.8329C374.094 66.6884 374.412 66.6088 374.746 66.6088C375.145 66.6088 375.519 66.7227 375.847 66.9235C376.158 65.934 376.968 65.2274 377.917 65.2274C378.911 65.2274 379.753 66.0014 380.027 67.0643C380.374 66.79 380.812 66.6259 381.289 66.6259C382.042 66.6259 382.699 67.0337 383.052 67.6411C383.232 66.3038 384.439 65.269 385.901 65.269C386.947 65.269 387.862 65.7981 388.365 66.5904C388.62 66.5194 388.891 66.4814 389.171 66.4814C390.019 66.4814 390.782 66.8304 391.31 67.384C391.381 65.9524 392.454 64.8159 393.769 64.8159C394.836 64.8159 395.745 65.5642 396.088 66.6124C396.578 66.1985 397.219 65.9475 397.92 65.9475C399.274 65.9475 400.403 66.8806 400.665 68.12C401.083 67.4966 401.893 67.0754 402.824 67.0754C403.135 67.0754 403.433 67.1219 403.708 67.2088C404.17 66.1851 405.113 65.4846 406.201 65.4846C407.284 65.4846 408.222 66.1789 408.687 67.1954C409.749 67.5052 410.538 68.3845 410.634 69.4462H367.974Z" fill="#82CDC5"/>
<path d="M407.524 74.3145H371.304C370.066 74.3145 368.986 73.4721 368.684 72.2703L367.975 69.4468H410.854L410.144 72.2703C409.842 73.472 408.762 74.3145 407.524 74.3145Z" fill="#F1B104"/>
<path d="M390.334 63.085C390.886 63.085 391.334 62.6372 391.334 62.085C391.334 61.5327 390.886 61.085 390.334 61.085C389.782 61.085 389.334 61.5327 389.334 62.085C389.334 62.6372 389.782 63.085 390.334 63.085Z" fill="#82CDC5"/>
<path d="M410.696 67.2974C411.249 67.2974 411.696 66.8496 411.696 66.2974C411.696 65.7451 411.249 65.2974 410.696 65.2974C410.144 65.2974 409.696 65.7451 409.696 66.2974C409.696 66.8496 410.144 67.2974 410.696 67.2974Z" fill="#82CDC5"/>
<path d="M368.849 65.7207C369.401 65.7207 369.849 65.273 369.849 64.7207C369.849 64.1684 369.401 63.7207 368.849 63.7207C368.296 63.7207 367.849 64.1684 367.849 64.7207C367.849 65.273 368.296 65.7207 368.849 65.7207Z" fill="#82CDC5"/>
<path d="M364.771 72.2622C365.323 72.2622 365.771 71.8145 365.771 71.2622C365.771 70.7099 365.323 70.2622 364.771 70.2622C364.218 70.2622 363.771 70.7099 363.771 71.2622C363.771 71.8145 364.218 72.2622 364.771 72.2622Z" fill="#82CDC5"/>
<path d="M358.187 69.2017H491.854V90.4933" stroke="#573240" stroke-width="0.5" stroke-linejoin="round"/>
<path d="M367.114 69.2017V90.4933" stroke="#573240" stroke-width="0.5" stroke-linejoin="round"/>
<path d="M376.041 69.2017V90.4933" stroke="#573240" stroke-width="0.5" stroke-linejoin="round"/>
<path d="M384.969 69.2017V90.4933" stroke="#573240" stroke-width="0.5" stroke-linejoin="round"/>
<path d="M393.896 69.2017V90.4933" stroke="#573240" stroke-width="0.5" stroke-linejoin="round"/>
<path d="M402.824 69.2017V90.4933" stroke="#573240" stroke-width="0.5" stroke-linejoin="round"/>
<path d="M411.751 69.2017V90.4933" stroke="#573240" stroke-width="0.5" stroke-linejoin="round"/>
<path d="M420.679 69.2017V90.4933" stroke="#573240" stroke-width="0.5" stroke-linejoin="round"/>
<path d="M429.606 69.2017V90.4933" stroke="#573240" stroke-width="0.5" stroke-linejoin="round"/>
<path d="M438.534 69.2017V90.4933" stroke="#573240" stroke-width="0.5" stroke-linejoin="round"/>
<path d="M447.461 69.2017V90.4933" stroke="#573240" stroke-width="0.5" stroke-linejoin="round"/>
<path d="M456.389 69.2017V90.4933" stroke="#573240" stroke-width="0.5" stroke-linejoin="round"/>
<path d="M465.316 69.2017V90.4933" stroke="#573240" stroke-width="0.5" stroke-linejoin="round"/>
<path d="M474.244 69.2017V90.4933" stroke="#573240" stroke-width="0.5" stroke-linejoin="round"/>
<path d="M483.171 69.2017V90.4933" stroke="#573240" stroke-width="0.5" stroke-linejoin="round"/>
<path d="M358.187 26.1987H210.935V199.876H358.187V26.1987Z" fill="#F1B104"/>
<path d="M253.299 100.407H244.123V199.876H253.299V100.407Z" fill="white"/>
<path d="M321.938 100.407H312.762V199.876H321.938V100.407Z" fill="white"/>
<path d="M225.327 88.0649V99.4841" stroke="white" stroke-width="0.734776" stroke-linecap="round"/>
<path d="M235.5 106.451C235.5 108.317 234.743 110.008 233.52 111.231C232.299 112.455 230.61 113.212 228.745 113.212H221.908C218.177 113.212 215.153 110.185 215.153 106.451C215.153 104.584 215.909 102.894 217.132 101.67C218.355 100.447 220.044 99.6899 221.909 99.6899H228.745C232.475 99.6899 235.5 102.717 235.5 106.451Z" fill="#FF6E00"/>
<path d="M235.5 106.451C235.5 108.317 234.743 110.008 233.521 111.232C232.299 112.455 230.61 113.213 228.745 113.213H225.794C225.637 113.213 225.483 113.207 225.329 113.196C227.007 113.082 228.517 112.352 229.635 111.231C230.858 110.008 231.615 108.317 231.615 106.451C231.615 102.874 228.84 99.9472 225.329 99.7059C225.483 99.6956 225.637 99.6899 225.794 99.6899H228.745C232.475 99.6899 235.5 102.718 235.5 106.451Z" fill="#FF6E00"/>
<path d="M225.327 113.197C225.173 113.207 225.016 113.213 224.86 113.213H221.908C218.177 113.213 215.153 110.185 215.153 106.451C215.153 104.585 215.909 102.894 217.132 101.67C218.355 100.448 220.044 99.6904 221.909 99.6904H224.86C225.017 99.6904 225.173 99.6962 225.327 99.7063C223.649 99.8207 222.137 100.55 221.017 101.67C219.795 102.894 219.038 104.584 219.038 106.451C219.038 110.029 221.814 112.957 225.327 113.197Z" fill="#FF6E00"/>
<path fill-rule="evenodd" clip-rule="evenodd" d="M235.5 106.451C235.5 108.317 234.743 110.008 233.521 111.232C232.299 112.455 230.61 113.213 228.745 113.213H225.794C225.637 113.213 225.483 113.207 225.329 113.196C227.007 113.082 228.517 112.352 229.635 111.231C230.858 110.008 231.615 108.317 231.615 106.451C231.615 102.874 228.84 99.9472 225.329 99.7059C225.483 99.6956 225.637 99.6899 225.794 99.6899H228.745C232.475 99.6899 235.5 102.718 235.5 106.451Z" stroke="white" stroke-width="0.612313" stroke-linecap="round"/>
<path d="M224.86 113.212H221.908C218.177 113.212 215.153 110.185 215.153 106.451C215.153 104.584 215.909 102.894 217.132 101.67C218.355 100.447 220.044 99.6899 221.909 99.6899H225.105" stroke="white" stroke-width="0.612313" stroke-linecap="round"/>
<path d="M225.327 99.7061V113.197" stroke="white" stroke-width="0.612313" stroke-linecap="round"/>
<path d="M229.061 113.212H221.908V114.68H229.061V113.212Z" fill="white"/>
<path d="M225.328 99.7061C223.649 99.8204 222.137 100.55 221.017 101.67C219.795 102.894 219.038 104.584 219.038 106.451C219.038 110.028 221.814 112.956 225.328 113.197" stroke="white" stroke-width="0.612313" stroke-linecap="round"/>
<path d="M340.923 88.0649V99.4841" stroke="white" stroke-width="0.734776" stroke-linecap="round"/>
<path d="M351.095 106.451C351.095 108.317 350.339 110.008 349.116 111.231C347.895 112.455 346.206 113.212 344.341 113.212H337.504C333.773 113.212 330.749 110.185 330.749 106.451C330.749 104.584 331.505 102.894 332.728 101.67C333.95 100.447 335.639 99.6899 337.504 99.6899H344.341C348.071 99.6899 351.095 102.717 351.095 106.451Z" fill="#FF6E00"/>
<path d="M351.095 106.451C351.095 108.317 350.339 110.008 349.116 111.232C347.895 112.455 346.206 113.213 344.341 113.213H341.389C341.233 113.213 341.078 113.207 340.924 113.196C342.603 113.082 344.112 112.352 345.231 111.231C346.454 110.008 347.21 108.317 347.21 106.451C347.21 102.874 344.436 99.9472 340.924 99.7059C341.079 99.6956 341.233 99.6899 341.389 99.6899H344.341C348.071 99.6899 351.095 102.718 351.095 106.451Z" fill="#FF6E00"/>
<path d="M340.923 113.197C340.769 113.207 340.612 113.213 340.456 113.213H337.504C333.773 113.213 330.749 110.185 330.749 106.451C330.749 104.585 331.505 102.894 332.728 101.67C333.95 100.448 335.639 99.6904 337.504 99.6904H340.456C340.612 99.6904 340.769 99.6962 340.923 99.7063C339.244 99.8207 337.733 100.55 336.613 101.67C335.39 102.894 334.634 104.584 334.634 106.451C334.634 110.029 337.409 112.957 340.923 113.197Z" fill="#FF6E00"/>
<path fill-rule="evenodd" clip-rule="evenodd" d="M351.095 106.451C351.095 108.317 350.339 110.008 349.116 111.232C347.895 112.455 346.206 113.213 344.341 113.213H341.389C341.233 113.213 341.078 113.207 340.924 113.196C342.603 113.082 344.112 112.352 345.231 111.231C346.454 110.008 347.21 108.317 347.21 106.451C347.21 102.874 344.436 99.9472 340.924 99.7059C341.079 99.6956 341.233 99.6899 341.389 99.6899H344.341C348.071 99.6899 351.095 102.718 351.095 106.451Z" stroke="white" stroke-width="0.612313" stroke-linecap="round"/>
<path d="M340.456 113.212H337.504C333.773 113.212 330.749 110.185 330.749 106.451C330.749 104.584 331.505 102.894 332.728 101.67C333.95 100.447 335.639 99.6899 337.504 99.6899H340.7" stroke="white" stroke-width="0.612313" stroke-linecap="round"/>
<path d="M340.923 99.7061V113.197" stroke="white" stroke-width="0.612313" stroke-linecap="round"/>
<path d="M344.657 113.212H337.504V114.68H344.657V113.212Z" fill="white"/>
<path d="M340.923 99.7061C339.245 99.8204 337.733 100.55 336.613 101.67C335.39 102.894 334.634 104.584 334.634 106.451C334.634 110.028 337.409 112.956 340.923 113.197" stroke="white" stroke-width="0.612313" stroke-linecap="round"/>
<path d="M236.458 120.236H219.467V176.093H236.458V120.236Z" fill="#573240"/>
<path d="M227.963 120.236V176.093" stroke="#F1B104" stroke-width="0.612313"/>
<path d="M236.458 166.783H219.467" stroke="#F1B104" stroke-width="0.612313"/>
<path d="M236.458 157.474H219.467" stroke="#F1B104" stroke-width="0.612313"/>
<path d="M236.458 148.165H219.467" stroke="#F1B104" stroke-width="0.612313"/>
<path d="M236.458 138.855H219.467" stroke="#F1B104" stroke-width="0.612313"/>
<path d="M236.458 129.546H219.467" stroke="#F1B104" stroke-width="0.612313"/>
<path d="M346.595 120.236H329.604V176.093H346.595V120.236Z" fill="#573240"/>
<path d="M338.099 120.236V176.093" stroke="#F1B104" stroke-width="0.612313"/>
<path d="M346.595 166.783H329.604" stroke="#F1B104" stroke-width="0.612313"/>
<path d="M346.595 157.474H329.604" stroke="#F1B104" stroke-width="0.612313"/>
<path d="M346.595 148.165H329.604" stroke="#F1B104" stroke-width="0.612313"/>
<path d="M346.595 138.855H329.604" stroke="#F1B104" stroke-width="0.612313"/>
<path d="M346.595 129.546H329.604" stroke="#F1B104" stroke-width="0.612313"/>
<path d="M350.858 37.6289H287.267V63.7602H350.858V37.6289Z" fill="#573240"/>
<path d="M295.216 37.6289V46.3393H287.267" stroke="#F1B104" stroke-width="0.612313"/>
<path d="M287.267 46.3394H295.216V55.0499H287.267" stroke="#F1B104" stroke-width="0.612313"/>
<path d="M287.267 55.0498H295.216V63.7602" stroke="#F1B104" stroke-width="0.612313"/>
<path d="M303.165 37.6289V46.3393H295.216V37.6289" stroke="#F1B104" stroke-width="0.612313"/>
<path d="M303.165 46.3394H295.216V55.0498H303.165V46.3394Z" stroke="#F1B104" stroke-width="0.612313"/>
<path d="M295.216 63.7602V55.0498H303.165V63.7602" stroke="#F1B104" stroke-width="0.612313"/>
<path d="M311.114 37.6289V46.3393H303.165V37.6289" stroke="#F1B104" stroke-width="0.612313"/>
<path d="M311.114 46.3394H303.165V55.0498H311.114V46.3394Z" stroke="#F1B104" stroke-width="0.612313"/>
<path d="M303.165 63.7602V55.0498H311.114V63.7602" stroke="#F1B104" stroke-width="0.612313"/>
<path d="M319.063 37.6289V46.3393H311.114V37.6289" stroke="#F1B104" stroke-width="0.612313"/>
<path d="M319.063 46.3394H311.114V55.0498H319.063V46.3394Z" stroke="#F1B104" stroke-width="0.612313"/>
<path d="M311.114 63.7602V55.0498H319.063V63.7602" stroke="#F1B104" stroke-width="0.612313"/>
<path d="M327.012 37.6289V46.3393H319.063V37.6289" stroke="#F1B104" stroke-width="0.612313"/>
<path d="M327.012 46.3394H319.063V55.0498H327.012V46.3394Z" stroke="#F1B104" stroke-width="0.612313"/>
<path d="M319.063 63.7602V55.0498H327.012V63.7602" stroke="#F1B104" stroke-width="0.612313"/>
<path d="M334.961 37.6289V46.3393H327.012V37.6289" stroke="#F1B104" stroke-width="0.612313"/>
<path d="M334.961 46.3394H327.012V55.0498H334.961V46.3394Z" stroke="#F1B104" stroke-width="0.612313"/>
<path d="M327.012 63.7602V55.0498H334.961V63.7602" stroke="#F1B104" stroke-width="0.612313"/>
<path d="M342.909 37.6289V46.3393H334.96V37.6289" stroke="#F1B104" stroke-width="0.612313"/>
<path d="M342.909 46.3394H334.96V55.0498H342.909V46.3394Z" stroke="#F1B104" stroke-width="0.612313"/>
<path d="M334.96 63.7602V55.0498H342.909V63.7602" stroke="#F1B104" stroke-width="0.612313"/>
<path d="M350.859 46.3393H342.91V37.6289" stroke="#F1B104" stroke-width="0.612313"/>
<path d="M350.859 55.0499H342.91V46.3394H350.859" stroke="#F1B104" stroke-width="0.612313"/>
<path d="M342.91 63.7602V55.0498H350.859" stroke="#F1B104" stroke-width="0.612313"/>
<path d="M282.113 37.6289H218.521V63.7602H282.113V37.6289Z" fill="#573240"/>
<path d="M226.47 37.6289V46.3393H218.521" stroke="#F1B104" stroke-width="0.612313"/>
<path d="M218.521 46.3394H226.47V55.0499H218.521" stroke="#F1B104" stroke-width="0.612313"/>
<path d="M218.521 55.0498H226.47V63.7602" stroke="#F1B104" stroke-width="0.612313"/>
<path d="M234.419 37.6289V46.3393H226.47V37.6289" stroke="#F1B104" stroke-width="0.612313"/>
<path d="M234.419 46.3394H226.47V55.0498H234.419V46.3394Z" stroke="#F1B104" stroke-width="0.612313"/>
<path d="M226.47 63.7602V55.0498H234.419V63.7602" stroke="#F1B104" stroke-width="0.612313"/>
<path d="M242.368 37.6289V46.3393H234.419V37.6289" stroke="#F1B104" stroke-width="0.612313"/>
<path d="M242.368 46.3394H234.419V55.0498H242.368V46.3394Z" stroke="#F1B104" stroke-width="0.612313"/>
<path d="M234.419 63.7602V55.0498H242.368V63.7602" stroke="#F1B104" stroke-width="0.612313"/>
<path d="M250.317 37.6289V46.3393H242.368V37.6289" stroke="#F1B104" stroke-width="0.612313"/>
<path d="M250.317 46.3394H242.368V55.0498H250.317V46.3394Z" stroke="#F1B104" stroke-width="0.612313"/>
<path d="M242.368 63.7602V55.0498H250.317V63.7602" stroke="#F1B104" stroke-width="0.612313"/>
<path d="M258.266 37.6289V46.3393H250.317V37.6289" stroke="#F1B104" stroke-width="0.612313"/>
<path d="M258.266 46.3394H250.317V55.0498H258.266V46.3394Z" stroke="#F1B104" stroke-width="0.612313"/>
<path d="M250.317 63.7602V55.0498H258.266V63.7602" stroke="#F1B104" stroke-width="0.612313"/>
<path d="M266.215 37.6289V46.3393H258.266V37.6289" stroke="#F1B104" stroke-width="0.612313"/>
<path d="M266.215 46.3394H258.266V55.0498H266.215V46.3394Z" stroke="#F1B104" stroke-width="0.612313"/>
<path d="M258.266 63.7602V55.0498H266.215V63.7602" stroke="#F1B104" stroke-width="0.612313"/>
<path d="M274.164 37.6289V46.3393H266.215V37.6289" stroke="#F1B104" stroke-width="0.612313"/>
<path d="M274.164 46.3394H266.215V55.0498H274.164V46.3394Z" stroke="#F1B104" stroke-width="0.612313"/>
<path d="M266.215 63.7602V55.0498H274.164V63.7602" stroke="#F1B104" stroke-width="0.612313"/>
<path d="M282.113 46.3393H274.164V37.6289" stroke="#F1B104" stroke-width="0.612313"/>
<path d="M282.113 55.0499H274.164V46.3394H282.113" stroke="#F1B104" stroke-width="0.612313"/>
<path d="M274.164 63.7602V55.0498H282.113" stroke="#F1B104" stroke-width="0.612313"/>
<path d="M204.523 64.718H179.137C178.716 64.718 178.374 64.376 178.374 63.9542V38.5455C178.374 38.1237 178.716 37.7817 179.137 37.7817H204.523C204.944 37.7817 205.286 38.1238 205.286 38.5455V63.9542C205.286 64.3761 204.944 64.718 204.523 64.718Z" fill="#573240"/>
<path d="M201.617 64.7181H178.646C177.558 64.7181 176.676 63.8351 176.676 62.7456V39.7542C176.676 38.6648 177.558 37.7817 178.646 37.7817H201.617C202.705 37.7817 203.588 38.6648 203.588 39.7542V62.7456C203.588 63.8351 202.705 64.7181 201.617 64.7181Z" fill="#FF6E00"/>
<path d="M210.965 64.5059H203.587" stroke="#573240" stroke-width="0.5" stroke-linejoin="round"/>
<path d="M203.587 37.9941H210.965" stroke="#573240" stroke-width="0.5" stroke-linejoin="round"/>
<path d="M189.545 50.4051L187.12 42.3071" stroke="#573240" stroke-width="0.5" stroke-linecap="round" stroke-linejoin="round"/>
<path d="M184.17 42.5547L188.443 49.98" stroke="#573240" stroke-width="0.5" stroke-linecap="round" stroke-linejoin="round"/>
<path d="M190.95 58.8622H185.241L182.057 49.98H194.134L190.95 58.8622Z" fill="white"/>
<path d="M197.954 49.9805L194.77 58.8623H190.949L194.133 49.9805H197.954Z" fill="#573240"/>
<path d="M181.845 49.98H198.167" stroke="#A9D8D5" stroke-width="0.612313" stroke-linecap="round"/>
<path d="M303.196 195.366H262.865C262.03 195.366 261.353 194.688 261.353 193.852V107.1C261.353 106.264 262.03 105.586 262.865 105.586H303.196C304.031 105.586 304.709 106.264 304.709 107.1V193.852C304.709 194.688 304.031 195.366 303.196 195.366Z" fill="#FF6E00"/>
<path d="M276.073 115.337H268.171V124.591H276.073V115.337Z" stroke="#F1B104" stroke-width="0.612313"/>
<path d="M286.942 115.337H279.04V124.591H286.942V115.337Z" stroke="#F1B104" stroke-width="0.612313"/>
<path d="M297.811 115.337H289.909V124.591H297.811V115.337Z" stroke="#F1B104" stroke-width="0.612313"/>
<path d="M276.073 127.857H268.171V137.111H276.073V127.857Z" stroke="#F1B104" stroke-width="0.612313"/>
<path d="M286.942 127.857H279.04V137.111H286.942V127.857Z" stroke="#F1B104" stroke-width="0.612313"/>
<path d="M297.811 127.857H289.909V137.111H297.811V127.857Z" stroke="#F1B104" stroke-width="0.612313"/>
<path d="M298.13 149.246C299.34 149.246 300.322 148.263 300.322 147.052C300.322 145.84 299.34 144.857 298.13 144.857C296.919 144.857 295.938 145.84 295.938 147.052C295.938 148.263 296.919 149.246 298.13 149.246Z" stroke="white" stroke-width="0.612313" stroke-linecap="round" stroke-linejoin="round"/>
<path d="M253.299 200V195.49H312.762V200" stroke="white" stroke-width="0.612313" stroke-linecap="round"/>
<path d="M333.868 88.6886H232.194C245.582 88.6886 255.216 81.6556 260.919 71.2622H305.143C310.846 81.6557 320.48 88.6886 333.868 88.6886Z" fill="#A9D8D5"/>
<path d="M231.959 95.6263C234.984 98.7503 239.143 100.513 243.489 100.513H322.573C326.918 100.513 331.077 98.7503 334.101 95.6263L340.696 88.0654C338.486 88.4745 336.203 88.6888 333.868 88.6888H232.194C229.859 88.6888 227.574 88.4745 225.365 88.0654L231.959 95.6263Z" fill="#573240"/>
<path d="M340.696 88.0654C338.486 88.4745 336.203 88.6888 333.868 88.6888H232.194C229.859 88.6888 227.574 88.4745 225.365 88.0654" stroke="white" stroke-width="0.734776" stroke-linecap="round"/>
<path d="M368.587 17.3297H197.266C210.226 14.9907 221.168 8.60668 227.73 0H338.122C344.685 8.60668 355.626 14.9905 368.587 17.3297Z" fill="#A9D8D5"/>
<path d="M368.526 18.6772C366.28 23.2799 361.61 26.199 356.492 26.199H209.409C204.292 26.199 199.621 23.2799 197.375 18.6772H368.526Z" fill="#573240"/>
<path d="M260.918 71.2622H305.143" stroke="white" stroke-width="0.612313" stroke-linecap="round"/>
<path d="M210.934 92.3618H76.7256V199.876H210.934V92.3618Z" fill="#A9D8D5"/>
<path d="M210.934 96.6665H76.7256" stroke="#573240" stroke-width="0.5" stroke-linecap="round" stroke-linejoin="round"/>
<path d="M210.934 88.7002H76.7256V92.3572H210.934V88.7002Z" fill="#F1B104"/>
<path d="M38.9224 168.254C41.7626 168.254 44.0651 165.949 44.0651 163.106C44.0651 160.264 41.7626 157.959 38.9224 157.959C36.0822 157.959 33.7798 160.264 33.7798 163.106C33.7798 165.949 36.0822 168.254 38.9224 168.254Z" fill="#FF6E00"/>
<path d="M59.7782 176.309H46.4233C45.3142 176.309 44.415 177.209 44.415 178.319H61.7865C61.7865 177.209 60.8873 176.309 59.7782 176.309Z" fill="#A9D8D5"/>
<path d="M29.6801 176.309H16.3252C15.216 176.309 14.3169 177.209 14.3169 178.319H31.6883C31.6883 177.209 30.7892 176.309 29.6801 176.309Z" fill="#A9D8D5"/>
<path d="M72.3509 160.216L48.8569 199.876" stroke="#573240" stroke-width="0.612313" stroke-linecap="round"/>
<path d="M72.5741 199.876L61.6264 178.319H44.415" stroke="#573240" stroke-width="0.612313" stroke-linecap="round"/>
<path d="M3.75586 160.216L27.2498 199.876" stroke="#573240" stroke-width="0.612313" stroke-linecap="round"/>
<path d="M3.53223 199.876L14.4799 178.319H31.6913" stroke="#573240" stroke-width="0.612313" stroke-linecap="round"/>
<path d="M21.8154 168.054H56.2814" stroke="#573240" stroke-width="0.612313" stroke-linecap="round"/>
<path d="M39.0483 199.876V168.054" stroke="#573240" stroke-width="0.612313" stroke-linecap="round"/>
<path d="M39.0503 161.687C40.4364 161.687 41.5601 160.852 41.5601 159.823C41.5601 158.793 40.4364 157.958 39.0503 157.958C37.6642 157.958 36.5405 158.793 36.5405 159.823C36.5405 160.852 37.6642 161.687 39.0503 161.687Z" fill="#573240"/>
<path d="M39.0503 161.089C39.0503 161.089 35.4906 161.683 34.3379 152.843C34.3379 152.843 39.8301 154.947 39.0503 161.089Z" fill="#A9D8D5"/>
<path d="M39.2949 161.089C39.2949 161.089 39.4137 157.248 44.9021 158.042C44.9021 158.042 43.2898 160.851 39.2949 161.089Z" fill="#A9D8D5"/>
<path d="M41.8155 155.978L39.0503 161.396V151.741" stroke="#573240" stroke-width="0.5" stroke-linecap="round" stroke-linejoin="round"/>
<path d="M39.0987 152.891C40.0658 152.891 40.8498 151.622 40.8498 150.056C40.8498 148.49 40.0658 147.221 39.0987 147.221C38.1316 147.221 37.3477 148.49 37.3477 150.056C37.3477 151.622 38.1316 152.891 39.0987 152.891Z" fill="#F1B104"/>
<path d="M41.3237 151.733C42.4302 150.627 42.8815 149.284 42.3316 148.734C41.7817 148.184 40.4388 148.635 39.3322 149.742C38.2257 150.849 37.7744 152.191 38.3243 152.741C38.8742 153.291 40.2171 152.84 41.3237 151.733Z" fill="#F1B104"/>
<path d="M39.7706 152.741C40.3205 152.191 39.8692 150.848 38.7626 149.742C37.6561 148.635 36.3132 148.184 35.7633 148.734C35.2134 149.284 35.6646 150.627 36.7712 151.733C37.8778 152.84 39.2206 153.291 39.7706 152.741Z" fill="#F1B104"/>
<path d="M43.6982 156.026C44.5664 155.229 44.871 154.149 44.3786 153.612C43.8862 153.075 42.7833 153.286 41.9151 154.082C41.047 154.878 40.7424 155.959 41.2348 156.496C41.7272 157.033 42.8301 156.822 43.6982 156.026Z" fill="#F1B104"/>
<path d="M45.1862 156.183C45.2114 155.598 44.2781 155.083 43.1016 155.032C41.9251 154.981 40.9508 155.414 40.9256 156C40.9003 156.585 41.8336 157.1 43.0102 157.151C44.1867 157.202 45.1609 156.768 45.1862 156.183Z" fill="#F1B104"/>
<path d="M42.8117 154.715C42.8625 153.538 42.4298 152.563 41.8451 152.538C41.2605 152.512 40.7453 153.447 40.6945 154.624C40.6437 155.802 41.0765 156.777 41.6611 156.802C42.2458 156.827 42.7609 155.893 42.8117 154.715Z" fill="#F1B104"/>
<path d="M69.0918 139.131C69.0918 141.241 70.8007 142.952 72.9088 142.952C75.0167 142.952 76.7257 141.241 76.7257 139.131" stroke="#573240" stroke-width="0.5" stroke-linecap="round" stroke-linejoin="round"/>
<path d="M73.1823 130.985H64.7554L66.6336 139.047H71.3041L73.1823 130.985Z" fill="#F6ACC1"/>
<path d="M63.5942 130.985H74.3438" stroke="#573240" stroke-width="0.5" stroke-linecap="round" stroke-linejoin="round"/>
<path fill-rule="evenodd" clip-rule="evenodd" d="M70.4411 128.188H67.4968C66.9944 128.188 66.5228 128.431 66.2309 128.841L64.7007 130.985H73.2373L71.7071 128.841C71.415 128.431 70.9435 128.188 70.4411 128.188Z" stroke="#573240" stroke-width="0.5" stroke-linecap="round" stroke-linejoin="round"/>
<path d="M66.0869 139.047H71.8512" stroke="#573240" stroke-width="0.5" stroke-linecap="round" stroke-linejoin="round"/>
<path d="M76.726 92.3618V120.236C76.726 122.928 73.2904 125.112 69.0534 125.112C64.8152 125.112 61.3808 122.928 61.3808 120.236C61.3808 122.928 57.9452 125.112 53.7082 125.112C49.4712 125.112 46.0356 122.928 46.0356 120.236C46.0356 122.928 42.6 125.112 38.363 125.112C34.126 125.112 30.6904 122.928 30.6904 120.236C30.6904 122.928 27.2548 125.112 23.0178 125.112C18.7808 125.112 15.3452 122.928 15.3452 120.236C15.3452 122.928 11.9108 125.112 7.6726 125.112C3.4356 125.112 0 122.928 0 120.236L76.726 92.3618Z" fill="#F1B104"/>
<path d="M76.7259 120.236H0.000488281" stroke="white" stroke-width="0.612313"/>
<path d="M138.402 102.856H87.5767V195.223H138.402V102.856Z" fill="white"/>
<path d="M98.6431 140.74H90.8777C90.2616 140.74 89.7622 140.24 89.7622 139.623V125.083C89.7622 124.466 90.2616 123.966 90.8777 123.966H98.6431C99.2592 123.966 99.7586 124.466 99.7586 125.083V139.623C99.7585 140.24 99.2591 140.74 98.6431 140.74Z" fill="#573240"/>
<path d="M110.058 140.74H102.293C101.677 140.74 101.177 140.24 101.177 139.623V125.083C101.177 124.466 101.677 123.966 102.293 123.966H110.058C110.674 123.966 111.174 124.466 111.174 125.083V139.623C111.174 140.24 110.674 140.74 110.058 140.74Z" fill="#573240"/>
<path d="M98.6431 158.938H90.8777C90.2616 158.938 89.7622 158.438 89.7622 157.821V143.281C89.7622 142.664 90.2616 142.165 90.8777 142.165H98.6431C99.2592 142.165 99.7586 142.664 99.7586 143.281V157.821C99.7585 158.438 99.2591 158.938 98.6431 158.938Z" fill="#573240"/>
<path d="M110.058 158.938H102.293C101.677 158.938 101.177 158.438 101.177 157.821V143.281C101.177 142.664 101.677 142.165 102.293 142.165H110.058C110.674 142.165 111.174 142.664 111.174 143.281V157.821C111.174 158.438 110.674 158.938 110.058 158.938Z" fill="#573240"/>
<path d="M98.6431 177.135H90.8777C90.2616 177.135 89.7622 176.636 89.7622 176.019V161.479C89.7622 160.862 90.2616 160.362 90.8777 160.362H98.6431C99.2592 160.362 99.7586 160.862 99.7586 161.479V176.019C99.7585 176.636 99.2591 177.135 98.6431 177.135Z" fill="#573240"/>
<path d="M110.058 177.135H102.293C101.677 177.135 101.177 176.636 101.177 176.019V161.479C101.177 160.862 101.677 160.362 102.293 160.362H110.058C110.674 160.362 111.174 160.862 111.174 161.479V176.019C111.174 176.636 110.674 177.135 110.058 177.135Z" fill="#573240"/>
<path d="M98.6431 122.811H90.8777C90.2616 122.811 89.7622 122.311 89.7622 121.694V107.154C89.7622 106.537 90.2616 106.038 90.8777 106.038H98.6431C99.2592 106.038 99.7586 106.537 99.7586 107.154V121.694C99.7585 122.311 99.2591 122.811 98.6431 122.811Z" fill="#573240"/>
<path d="M110.058 122.811H102.293C101.677 122.811 101.177 122.311 101.177 121.694V107.154C101.177 106.537 101.677 106.038 102.293 106.038H110.058C110.674 106.038 111.174 106.537 111.174 107.154V121.694C111.174 122.311 110.674 122.811 110.058 122.811Z" fill="#573240"/>
<path d="M123.693 140.74H115.982C115.366 140.74 114.867 140.24 114.867 139.623V125.083C114.867 124.466 115.366 123.966 115.982 123.966H123.693C124.309 123.966 124.808 124.466 124.808 125.083V139.623C124.808 140.24 124.309 140.74 123.693 140.74Z" fill="#573240"/>
<path d="M135.163 140.74H127.452C126.836 140.74 126.337 140.24 126.337 139.623V125.083C126.337 124.466 126.836 123.966 127.452 123.966H135.163C135.779 123.966 136.278 124.466 136.278 125.083V139.623C136.278 140.24 135.779 140.74 135.163 140.74Z" fill="#573240"/>
<path d="M123.693 122.811H115.982C115.366 122.811 114.867 122.311 114.867 121.694V107.154C114.867 106.537 115.366 106.038 115.982 106.038H123.693C124.309 106.038 124.808 106.537 124.808 107.154V121.694C124.808 122.311 124.309 122.811 123.693 122.811Z" fill="#573240"/>
<path d="M135.163 122.811H127.452C126.836 122.811 126.337 122.311 126.337 121.694V107.154C126.337 106.537 126.836 106.038 127.452 106.038H135.163C135.779 106.038 136.278 106.537 136.278 107.154V121.694C136.278 122.311 135.779 122.811 135.163 122.811Z" fill="#573240"/>
<path d="M123.693 158.938H115.982C115.366 158.938 114.867 158.438 114.867 157.821V143.281C114.867 142.664 115.366 142.165 115.982 142.165H123.693C124.309 142.165 124.808 142.664 124.808 143.281V157.821C124.808 158.438 124.309 158.938 123.693 158.938Z" fill="#573240"/>
<path d="M135.163 158.938H127.452C126.836 158.938 126.337 158.438 126.337 157.821V143.281C126.337 142.664 126.836 142.165 127.452 142.165H135.163C135.779 142.165 136.278 142.664 136.278 143.281V157.821C136.278 158.438 135.779 158.938 135.163 158.938Z" fill="#573240"/>
<path d="M123.693 177.135H115.982C115.366 177.135 114.867 176.636 114.867 176.019V161.479C114.867 160.862 115.366 160.362 115.982 160.362H123.693C124.309 160.362 124.808 160.862 124.808 161.479V176.019C124.808 176.636 124.309 177.135 123.693 177.135Z" fill="#573240"/>
<path d="M135.163 177.135H127.452C126.836 177.135 126.337 176.636 126.337 176.019V161.479C126.337 160.862 126.836 160.362 127.452 160.362H135.163C135.779 160.362 136.278 160.862 136.278 161.479V176.019C136.278 176.636 135.779 177.135 135.163 177.135Z" fill="#573240"/>
<path d="M112.989 102.856V195.366" stroke="#A9D8D5" stroke-width="0.612313"/>
<path d="M83.7896 199.876V195.366H141.76V199.876" stroke="#573240" stroke-width="0.5" stroke-linecap="round" stroke-linejoin="round"/>
<path d="M108.13 143.617C109.278 143.617 110.21 142.685 110.21 141.535C110.21 140.385 109.278 139.453 108.13 139.453C106.981 139.453 106.05 140.385 106.05 141.535C106.05 142.685 106.981 143.617 108.13 143.617Z" fill="#FF6E00"/>
<path d="M117.918 143.617C119.067 143.617 119.998 142.685 119.998 141.535C119.998 140.385 119.067 139.453 117.918 139.453C116.769 139.453 115.838 140.385 115.838 141.535C115.838 142.685 116.769 143.617 117.918 143.617Z" fill="#FF6E00"/>
<path d="M200.57 120.236H150.651V167.695H200.57V120.236Z" fill="#573240"/>
<path d="M202.529 120.236H148.814V167.695H202.529V120.236Z" stroke="white" stroke-width="0.612313" stroke-linecap="round"/>
<path d="M161.454 152.707L187.196 126.94" stroke="white" stroke-width="0.612313" stroke-linecap="round"/>
<path d="M175.658 143.96L187.196 132.412" stroke="white" stroke-width="0.612313" stroke-linecap="round"/>
<path d="M168.964 150.661L172.716 146.906" stroke="white" stroke-width="0.612313" stroke-linecap="round"/>
<path d="M202.88 167.695V170.5C202.88 173.589 200.273 176.092 197.057 176.092H154.379C151.163 176.092 148.556 173.588 148.556 170.5V167.695H202.88Z" fill="#F6ACC1"/>
<path d="M177.258 167.429C177.258 167.429 176.02 162.854 171.146 162.071C171.146 162.071 171.696 166.085 174.896 167.429H177.258Z" fill="#96CFCE"/>
<path d="M192.305 167.527C192.305 167.527 194.791 164.405 198.878 164.141C198.878 164.141 198.143 166.385 196.263 167.527H192.305Z" fill="#96CFCE"/>
<path d="M185.585 167.527C185.585 167.527 179.175 161.169 180.037 150.872C180.037 150.872 188.227 159.132 187.621 167.527H185.585Z" fill="#96CFCE"/>
<path d="M191.418 167.527C191.418 167.527 190.975 161.278 197.768 158.675C197.768 158.675 197.477 163.839 192.763 167.527H191.418Z" fill="#96CFCE"/>
<path d="M188.707 158.181V167.836" stroke="#96CFCE" stroke-width="0.5"/>
<path d="M190.887 164.062C190.887 164.062 189.838 164.553 189.889 167.849" stroke="#96CFCE" stroke-width="0.5"/>
<path d="M194.261 163.029C194.227 163.092 194.191 163.153 194.151 163.21C194.301 162.904 194.338 162.606 194.233 162.366C193.993 161.819 193.093 161.755 192.157 162.19C191.987 161.171 191.427 160.464 190.84 160.575C190.59 160.621 190.371 160.811 190.205 161.094C190.227 161.038 190.253 160.982 190.282 160.927C190.681 160.171 191.52 159.829 192.156 160.165C192.486 160.339 192.697 160.662 192.767 161.038C193.116 160.884 193.501 160.875 193.832 161.05C194.468 161.386 194.66 162.272 194.261 163.029Z" fill="white"/>
<path d="M192.862 164.465C192.069 164.906 191.263 164.988 190.823 164.721C190.355 164.508 189.968 163.796 189.884 162.892C189.774 161.732 190.203 160.695 190.84 160.575C191.427 160.464 191.987 161.171 192.157 162.19C193.093 161.756 193.993 161.819 194.233 162.366C194.494 162.961 193.881 163.9 192.862 164.465Z" fill="#FF6E00"/>
<path d="M191.13 157.696C190.513 158.6 189.52 159.169 188.69 159.16C187.853 159.169 186.854 158.578 186.25 157.651C185.511 156.517 185.643 155.311 186.544 154.957C187.174 154.709 188.144 155.082 188.714 156.051H188.715C189.255 155.045 190.273 154.737 190.897 154.997C191.79 155.368 191.894 156.577 191.13 157.696Z" fill="#FF6E00"/>
<path d="M170.002 161.069C170.002 161.069 173.644 162.275 174.271 167.587" stroke="#573240" stroke-width="0.5" stroke-linecap="round"/>
<path d="M171.534 158.181C171.296 157.504 170.877 157.058 170.427 157.086C169.781 157.126 169.317 158.126 169.391 159.319C169.397 159.407 169.405 159.494 169.416 159.579C169.325 159.587 169.232 159.599 169.138 159.614C167.959 159.804 167.086 160.477 167.19 161.116C167.256 161.531 167.718 161.83 168.356 161.937C167.521 161.962 166.798 161.525 166.644 160.844C166.539 160.382 166.719 159.907 167.085 159.545C166.686 158.912 166.663 158.163 167.087 157.683C167.479 157.239 168.144 157.146 168.777 157.385C169.014 156.882 169.439 156.536 169.943 156.505C170.733 156.456 171.428 157.197 171.534 158.181Z" fill="white"/>
<path d="M171.729 159.174C171.789 160.138 171.502 161.031 171.048 161.338C170.695 161.64 170.146 161.826 169.511 161.929C168.331 162.119 167.292 161.755 167.189 161.116C167.086 160.477 167.959 159.804 169.138 159.614C169.232 159.598 169.325 159.587 169.416 159.579C169.405 159.494 169.397 159.407 169.391 159.319C169.317 158.126 169.781 157.126 170.427 157.086C171.072 157.046 171.655 157.98 171.729 159.174Z" fill="#FF6E00"/>
<path d="M198.878 162.98C199.431 162.98 199.878 162.533 199.878 161.98C199.878 161.428 199.431 160.98 198.878 160.98C198.326 160.98 197.878 161.428 197.878 161.98C197.878 162.533 198.326 162.98 198.878 162.98Z" stroke="#F1B104" stroke-width="0.5"/>
<path d="M173.622 161.036C174.174 161.036 174.622 160.588 174.622 160.036C174.622 159.483 174.174 159.036 173.622 159.036C173.07 159.036 172.622 159.483 172.622 160.036C172.622 160.588 173.07 161.036 173.622 161.036Z" stroke="#F1B104" stroke-width="0.5"/>
<path d="M165.465 163.685C166.017 163.685 166.465 163.237 166.465 162.685C166.465 162.132 166.017 161.685 165.465 161.685C164.913 161.685 164.465 162.132 164.465 162.685C164.465 163.237 164.913 163.685 165.465 163.685Z" stroke="#F1B104" stroke-width="0.5"/>
<path d="M152.64 166.617C153.192 166.617 153.64 166.169 153.64 165.617C153.64 165.064 153.192 164.617 152.64 164.617C152.087 164.617 151.64 165.064 151.64 165.617C151.64 166.169 152.087 166.617 152.64 166.617Z" stroke="#F1B104" stroke-width="0.5"/>
<path d="M186.23 152.469C186.782 152.469 187.23 152.021 187.23 151.469C187.23 150.916 186.782 150.469 186.23 150.469C185.678 150.469 185.23 150.916 185.23 151.469C185.23 152.021 185.678 152.469 186.23 152.469Z" stroke="#F1B104" stroke-width="0.5"/>
<path d="M178.496 162.148C178.496 162.148 178.972 165.149 182.919 167.695" stroke="#96CFCE" stroke-width="0.5"/>
<path d="M178.089 164.473C179.508 164.473 180.658 163.322 180.658 161.901C180.658 160.481 179.508 159.33 178.089 159.33C176.67 159.33 175.52 160.481 175.52 161.901C175.52 163.322 176.67 164.473 178.089 164.473Z" fill="#F1B104"/>
<path d="M163.678 167.429C163.678 167.429 163.274 160.751 158.321 159.164C158.321 159.164 157.997 165.739 162.906 167.429H163.678Z" fill="#96CFCE"/>
<path d="M163.248 167.526C163.248 167.526 165.908 164.23 170.282 163.952C170.282 163.952 169.495 166.321 167.483 167.526H163.248Z" fill="#96CFCE"/>
<path d="M163.135 158.181V167.836" stroke="#96CFCE" stroke-width="0.5"/>
<path d="M163.182 160.045C164.601 160.045 165.752 158.894 165.752 157.474C165.752 156.053 164.601 154.902 163.182 154.902C161.763 154.902 160.613 156.053 160.613 157.474C160.613 158.894 161.763 160.045 163.182 160.045Z" fill="#F1B104"/>
<path d="M154.882 164.23C154.882 164.23 155.683 167.248 160.162 167.695" stroke="#96CFCE" stroke-width="0.5"/>
<path d="M156.81 161.114C156.816 161.185 156.819 161.256 156.816 161.326C156.775 160.987 156.644 160.717 156.425 160.574C155.925 160.246 155.137 160.684 154.59 161.56C153.892 160.799 153.037 160.512 152.605 160.926C152.421 161.102 152.341 161.38 152.356 161.708C152.344 161.649 152.335 161.588 152.33 161.526C152.251 160.674 152.768 159.929 153.484 159.864C153.856 159.829 154.208 159.985 154.472 160.262C154.681 159.941 154.999 159.724 155.371 159.69C156.087 159.624 156.731 160.261 156.81 161.114Z" fill="white"/>
<path d="M156.42 163.081C155.996 163.884 155.365 164.392 154.851 164.409C154.343 164.487 153.63 164.102 153.067 163.389C152.343 162.477 152.136 161.374 152.605 160.926C153.037 160.512 153.892 160.799 154.589 161.56C155.137 160.684 155.925 160.246 156.425 160.574C156.967 160.929 156.966 162.051 156.42 163.081Z" fill="#FF6E00"/>
<path d="M148.814 167.695H202.529" stroke="white" stroke-width="0.612313" stroke-linecap="round"/>
<path d="M191.62 156.505C191.719 155.82 191.471 155.235 190.897 154.997C190.272 154.737 189.427 155.512 188.715 156.051H188.714C188.014 155.499 187.174 154.709 186.544 154.957C185.948 155.191 185.689 155.798 185.796 156.511C185.461 155.619 185.68 154.677 186.366 154.28C186.709 154.081 187.113 154.053 187.505 154.166C187.774 153.644 188.212 153.305 188.706 153.305C189.201 153.305 189.64 153.644 189.908 154.166C190.301 154.053 190.704 154.081 191.047 154.28C191.731 154.675 191.952 155.615 191.62 156.505Z" fill="white"/>
<path d="M206.301 120.235C206.301 122.928 202.866 125.112 198.629 125.112C194.39 125.112 190.956 122.928 190.956 120.235C190.956 122.928 187.52 125.112 183.283 125.112C179.045 125.112 175.611 122.928 175.611 120.235C175.611 122.928 172.175 125.112 167.938 125.112C163.701 125.112 160.266 122.928 160.266 120.235C160.266 122.928 156.83 125.112 152.593 125.112C148.356 125.112 144.92 122.928 144.92 120.235L150.123 102.855H201.099L206.301 120.235Z" fill="#F1B104"/>
<path d="M144.92 120.236H206.301" stroke="white" stroke-width="0.612313" stroke-linecap="round"/>
<path d="M150.122 102.856H201.098" stroke="white" stroke-width="0.612313" stroke-linecap="round"/>
<path d="M91.4634 92.3622V85.0483H133.723V92.3622" stroke="#573240" stroke-width="0.5" stroke-linejoin="round"/>
<path d="M138.188 72.9873V83.451C138.188 84.3334 137.485 85.0487 136.618 85.0487H88.5684C87.7017 85.0487 86.999 84.3334 86.999 83.451V72.9873C90.0802 67.602 100.371 62.0122 112.593 62.0122C124.814 62.0122 135.106 67.6019 138.188 72.9873Z" fill="#F6ACC1"/>
<path fill-rule="evenodd" clip-rule="evenodd" d="M138.188 72.9873V83.451C138.188 84.3334 137.485 85.0487 136.618 85.0487H88.5684C87.7017 85.0487 86.999 84.3334 86.999 83.451V72.9873C90.0802 67.602 100.371 62.0122 112.593 62.0122C124.814 62.0122 135.107 67.6019 138.188 72.9873Z" stroke="#573240" stroke-width="0.5" stroke-linecap="round"/>
<path d="M104.139 71.9326H103.313C100.894 71.9326 98.9331 73.8954 98.9331 76.3167C98.9331 76.8305 99.3492 77.247 99.8626 77.247H119.372" stroke="#573240" stroke-width="0.612313" stroke-linecap="round"/>
<path d="M110.251 69.3926H109.026C105.817 69.3926 103.216 71.9965 103.216 75.2086V75.252C103.216 76.3541 104.108 77.2475 105.209 77.2475" stroke="#573240" stroke-width="0.612313" stroke-linecap="round"/>
<path d="M120.608 70.9932C119.914 68.9117 117.951 67.4111 115.639 67.4111H114.425C111.532 67.4111 109.188 69.758 109.188 72.653V75.1266C109.188 76.2979 110.136 77.2473 111.306 77.2473" stroke="#573240" stroke-width="0.612313" stroke-linecap="round"/>
<path fill-rule="evenodd" clip-rule="evenodd" d="M116.182 75.9778V74.7531C116.182 72.6765 117.863 70.9932 119.938 70.9932H120.294C122.13 70.9932 123.851 71.8871 124.908 73.3896L125.981 74.9152C126.671 75.8956 125.971 77.2472 124.773 77.2472H117.45C116.749 77.2472 116.182 76.6789 116.182 75.9778Z" stroke="#573240" stroke-width="0.612313" stroke-linecap="round"/>
<path d="M103.417 80.2881H121.77" stroke="#573240" stroke-width="0.612313" stroke-linecap="round" stroke-linejoin="round"/>
</svg>
