<svg width="24" height="24" viewBox="0 0 24 24" fill="none" xmlns="http://www.w3.org/2000/svg">
<path fill-rule="evenodd" clip-rule="evenodd" d="M18.0571 4C18.5866 4 19.0243 4.41272 19.0554 4.94128L19.8754 18.8826C19.943 20.0313 19.0296 21 17.8789 21H6.12109C4.97035 21 4.05697 20.0313 4.12454 18.8826L4.94462 4.94128C4.97571 4.41272 5.41342 4 5.94289 4H18.0571Z" fill="white"/>
<path fill-rule="evenodd" clip-rule="evenodd" d="M9 7C9 8.65685 10.3431 10 12 10C13.6569 10 15 8.65685 15 7H17C17 9.76142 14.7614 12 12 12C9.23858 12 7 9.76142 7 7H9Z" fill="#077777"/>
</svg>
