<svg width="24" height="24" viewBox="0 0 24 24" fill="none" xmlns="http://www.w3.org/2000/svg">
    <path fill-rule="evenodd" clip-rule="evenodd"
        d="M3 13C3 8.02944 7.02944 4 12 4C16.9706 4 21 8.02944 21 13C21 17.9706 16.9706 22 12 22C7.02944 22 3 17.9706 3 13Z"
        fill="white" />
    <path fill-rule="evenodd" clip-rule="evenodd"
        d="M12.0476 7.5C12.3044 7.5 12.5195 7.69465 12.5451 7.95025L13.0001 12.5L16.2481 14.356C16.4039 14.4451 16.5001 14.6107 16.5001 14.7902V14.8454C16.5001 15.1751 16.1866 15.4145 15.8685 15.3278L11.3987 14.1087C11.1673 14.0456 11.0134 13.8271 11.0318 13.588L11.4646 7.96165C11.4846 7.70115 11.7018 7.5 11.9631 7.5H12.0476Z"
        fill="#077777" />
</svg>