<svg width="24" height="24" viewBox="0 0 24 24" fill="none" xmlns="http://www.w3.org/2000/svg">
<path fill-rule="evenodd" clip-rule="evenodd" d="M16.0002 15.6316H19.6568L22.1673 18.1421C22.4829 18.4577 23.0225 18.2331 23.0209 17.7868L23.0042 13.1053V5.52632C23.0042 4.13107 21.8731 3 20.4779 3H8.68843C7.29318 3 6.16211 4.13107 6.16211 5.52632V9H13.0002C14.6571 9 16.0002 10.3431 16.0002 12V15.6316Z" fill="white"/>
<path fill-rule="evenodd" clip-rule="evenodd" d="M1.98535 13C1.98535 11.8954 2.88078 11 3.98535 11H11.9854C13.0899 11 13.9854 11.8954 13.9854 13V18C13.9854 19.1046 13.0899 20 11.9854 20H4.10108L2.85723 21.1905C2.53923 21.4949 2.0115 21.2695 2.0115 20.8293V18.3243C1.9943 18.2187 1.98535 18.1104 1.98535 18V13ZM6.00024 14.5C6.00024 14.2239 6.2241 14 6.50024 14H11.5002C11.7764 14 12.0002 14.2239 12.0002 14.5C12.0002 14.7761 11.7764 15 11.5002 15H6.50024C6.2241 15 6.00024 14.7761 6.00024 14.5ZM9.50024 16C9.2241 16 9.00024 16.2239 9.00024 16.5C9.00024 16.7761 9.2241 17 9.50024 17H11.5002C11.7764 17 12.0002 16.7761 12.0002 16.5C12.0002 16.2239 11.7764 16 11.5002 16H9.50024Z" fill="white"/>
</svg>
