<svg width="25" height="24" viewBox="0 0 25 24" fill="none" xmlns="http://www.w3.org/2000/svg">
<path opacity="0.3" fill-rule="evenodd" clip-rule="evenodd" d="M14.2364 2C14.5911 2 14.9343 2.12568 15.2051 2.35474L19.9687 6.38394C20.3057 6.66895 20.5 7.08788 20.5 7.5292V20.0833C20.5 21.8739 20.4796 22 18.6429 22H6.35714C4.52045 22 4.5 21.8739 4.5 20.0833V3.91667C4.5 2.12612 4.52045 2 6.35714 2H14.2364Z" fill="#CDE4E4"/>
<path d="M9.78678 16C9.70857 16 9.63904 15.9731 9.57821 15.9192C9.52607 15.8564 9.5 15.7846 9.5 15.7038C9.5 15.6769 9.50435 15.6455 9.51304 15.6096C9.53042 15.5647 9.55214 15.5244 9.57821 15.4885L11.7812 12.4058L9.76071 9.51154C9.73464 9.47564 9.71291 9.43974 9.69553 9.40385C9.68684 9.36795 9.6825 9.33205 9.6825 9.29615C9.6825 9.21538 9.70857 9.14808 9.76071 9.09423C9.82154 9.03141 9.89106 9 9.96927 9H11.325C11.4292 9 11.5074 9.02692 11.5596 9.08077C11.6204 9.13462 11.6639 9.18397 11.6899 9.22885L13.0326 11.1135L14.3752 9.24231C14.41 9.19744 14.4534 9.14808 14.5056 9.09423C14.5577 9.03141 14.6403 9 14.7533 9H16.0438C16.122 9 16.1872 9.03141 16.2393 9.09423C16.3001 9.14808 16.3305 9.21538 16.3305 9.29615C16.3305 9.33205 16.3262 9.36795 16.3175 9.40385C16.3088 9.43974 16.2871 9.47564 16.2523 9.51154L14.1927 12.4192L16.4218 15.4885C16.4479 15.5244 16.4652 15.5603 16.4739 15.5962C16.4913 15.6321 16.5 15.6679 16.5 15.7038C16.5 15.7846 16.4696 15.8564 16.4088 15.9192C16.3566 15.9731 16.2914 16 16.2132 16H14.7924C14.6968 16 14.6229 15.9776 14.5708 15.9327C14.5186 15.8788 14.4752 15.8295 14.4404 15.7846L12.9935 13.7923L11.5205 15.7846C11.4944 15.8205 11.4553 15.8654 11.4032 15.9192C11.351 15.9731 11.2728 16 11.1685 16H9.78678Z" fill="#077777"/>
</svg>
