<svg width="63" height="24" viewBox="0 0 63 24" fill="none" xmlns="http://www.w3.org/2000/svg">
<path fill-rule="evenodd" clip-rule="evenodd" d="M16 4.5C16 3.67157 16.6716 3 17.5 3H46C46.8284 3 47.5 3.67157 47.5 4.5C47.5 5.32843 46.8284 6 46 6H17.5C16.6716 6 16 5.32843 16 4.5ZM16 11.5C16 10.6716 16.6716 10 17.5 10H46C46.8284 10 47.5 10.6716 47.5 11.5C47.5 12.3284 46.8284 13 46 13H17.5C16.6716 13 16 12.3284 16 11.5ZM17.5 17C16.6716 17 16 17.6716 16 18.5C16 19.3284 16.6716 20 17.5 20H46C46.8284 20 47.5 19.3284 47.5 18.5C47.5 17.6716 46.8284 17 46 17H17.5Z" fill="#077777"/>
</svg>
