<svg width="32" height="32" viewBox="0 0 32 32" fill="none" xmlns="http://www.w3.org/2000/svg">
<path fill-rule="evenodd" clip-rule="evenodd" d="M10.5545 26.8627C9.90274 27.2053 9.09657 26.9547 8.7539 26.3029C8.61745 26.0434 8.57036 25.7461 8.61993 25.4571L9.65999 19.3931L5.25421 15.0985C4.7269 14.5845 4.71611 13.7403 5.23011 13.213C5.43479 13.003 5.70298 12.8664 5.99317 12.8242L12.0818 11.9395L14.8047 6.42225C15.1306 5.76192 15.9301 5.4908 16.5905 5.81669C16.8534 5.94647 17.0662 6.1593 17.196 6.42225L19.9189 11.9395L26.0076 12.8242C26.7363 12.9301 27.2412 13.6067 27.1353 14.3354C27.0932 14.6256 26.9565 14.8938 26.7465 15.0985L22.3407 19.3931L23.3808 25.4571C23.5053 26.1829 23.0178 26.8721 22.2921 26.9966C22.003 27.0462 21.7058 26.9991 21.4462 26.8627L16.0004 23.9996L10.5545 26.8627Z" fill="#FFC200"/>
</svg>
