<svg width="16" height="16" viewBox="0 0 16 16" fill="none" xmlns="http://www.w3.org/2000/svg">
<rect width="16" height="16" rx="2" fill="#FF3C00"/>
<path d="M14.8405 5.81528C14.4515 4.62759 13.7083 3.7594 12.6873 3.31488C11.9233 2.97455 10.687 2.8148 9.52016 3.35655C8.86727 3.66216 8.37414 4.12057 8.00602 4.63454C7.63096 4.12057 7.14477 3.66216 6.49189 3.35655C5.31809 2.80785 4.08178 2.97455 3.31777 3.30793C2.29677 3.7594 1.5536 4.62064 1.16465 5.80834C0.984061 6.35703 0.956279 6.92657 1.06046 7.60029C1.22021 8.57267 1.60916 9.5381 2.20648 10.3855L3.59559 12.3788C3.8248 12.7122 4.19291 12.8859 4.56797 12.8859C4.80412 12.8859 5.03332 12.8164 5.24169 12.6705C5.7765 12.2955 5.90846 11.5593 5.5334 11.0245L4.14429 9.03108C3.75534 8.46849 3.49835 7.84339 3.39417 7.21828C3.34555 6.91963 3.37333 6.7182 3.40806 6.53067C3.53308 5.93336 3.87341 5.6347 4.26237 5.46106C4.40822 5.39855 4.85968 5.28047 5.31114 5.41938C5.89457 5.57913 6.57524 6.2598 7.11005 7.22523C7.11699 7.23218 7.12394 7.24607 7.12394 7.25301C7.24201 7.46833 7.35314 7.69753 7.45038 7.94062C7.45732 7.95451 7.45732 7.96841 7.46427 7.97535C7.46427 7.9823 7.47121 7.9823 7.47121 7.98924C7.56151 8.18372 7.76293 8.31568 7.99213 8.31568C8.22828 8.31568 8.4297 8.17677 8.52 7.97535C8.52 7.97535 8.52 7.97535 8.52 7.96841C8.52 7.96146 8.51999 7.96146 8.52694 7.95451C9.08953 6.60013 9.95772 5.60691 10.6801 5.40549C11.1315 5.26658 11.576 5.38466 11.7288 5.44717C12.1247 5.62081 12.4442 5.92641 12.5831 6.51678C12.6318 6.70431 12.6457 6.90573 12.597 7.20439C12.4998 7.82949 12.2359 8.45459 11.8469 9.01718L10.4578 11.0106C10.0827 11.5454 10.2147 12.2816 10.7495 12.6567C10.9579 12.8025 11.194 12.872 11.4232 12.872C11.7983 12.872 12.1664 12.6983 12.3956 12.3649L13.7847 10.3716C14.3751 9.52421 14.771 8.55878 14.9307 7.5864C15.0488 6.92657 15.0141 6.35703 14.8405 5.81528Z" fill="white"/>
</svg>
