<svg width="24" height="24" viewBox="0 0 24 24" fill="none" xmlns="http://www.w3.org/2000/svg">
<path fill-rule="evenodd" clip-rule="evenodd" d="M7.91565 20.1472C7.42681 20.4042 6.82218 20.2163 6.56518 19.7274C6.46284 19.5328 6.42753 19.3098 6.4647 19.0931L7.24475 14.545L3.94042 11.3241C3.54493 10.9386 3.53684 10.3055 3.92234 9.91001C4.07585 9.75252 4.27699 9.65004 4.49463 9.61841L9.06111 8.95486L11.1033 4.81693C11.3477 4.32168 11.9473 4.11834 12.4426 4.36276C12.6398 4.46009 12.7994 4.61972 12.8968 4.81693L14.939 8.95486L19.5054 9.61841C20.052 9.69783 20.4307 10.2053 20.3512 10.7518C20.3196 10.9695 20.2171 11.1706 20.0596 11.3241L16.7553 14.545L17.5354 19.0931C17.6287 19.6374 17.2631 20.1543 16.7188 20.2477C16.502 20.2849 16.2791 20.2496 16.0844 20.1472L12 17.9999L7.91565 20.1472Z" fill="#FFA54C"/>
</svg>
