<svg width="160" height="56" viewBox="0 0 160 56" fill="none" xmlns="http://www.w3.org/2000/svg">
<path d="M8.56969 13.5996H7.17969V17.4996H8.56969V13.5996Z" fill="#FF6E27"/>
<path fill-rule="evenodd" clip-rule="evenodd" d="M17.7005 14.8101C18.2105 14.8101 18.6105 14.4601 18.6105 13.6901C18.6105 12.6001 17.4905 12.3701 16.6305 12.3701H14.2705V17.5001H15.6505V15.3001H16.2105C16.8605 15.3001 17.1305 15.2801 17.1405 15.8301C17.1305 17.4801 17.1605 16.0201 17.1405 17.5101H18.5305V15.6401C18.4905 15.3101 18.6205 14.8101 17.7005 14.8101ZM16.2505 14.4201H15.6705V13.3601H16.2505C16.7005 13.3601 17.2105 13.3201 17.2105 13.8501C17.2105 14.3701 16.7005 14.4201 16.2505 14.4201Z" fill="#FF6E27"/>
<path fill-rule="evenodd" clip-rule="evenodd" d="M21.3206 12.3604C19.8006 12.3604 18.8906 13.3204 18.8906 14.9704C18.8906 16.6204 19.8006 17.5704 21.3206 17.5704C22.8406 17.5704 23.7606 16.6104 23.7606 14.9604C23.7606 13.3104 22.8506 12.3604 21.3206 12.3604ZM21.3106 16.7804C20.4406 16.7804 20.3206 15.7304 20.3206 14.9904C20.3206 14.2104 20.4506 13.1704 21.3206 13.1704C22.1906 13.1704 22.3306 14.2004 22.3306 14.9804C22.3306 15.7204 22.1806 16.7804 21.3106 16.7804Z" fill="#FF6E27"/>
<path fill-rule="evenodd" clip-rule="evenodd" d="M12.4507 15.6001C12.4507 16.7001 11.5607 16.6701 11.5107 16.6701C10.8907 16.6701 10.5207 15.9801 10.5207 14.9901C10.5207 14.1701 10.7107 13.1401 11.5407 13.1401C11.9707 13.1401 12.3507 13.4801 12.3307 13.9401H13.7107C13.5507 12.7901 12.7307 12.3301 11.3607 12.3301C10.0607 12.3301 9.01074 13.3801 9.01074 14.9601C9.01074 16.5401 10.0407 17.5601 11.3407 17.5601C12.1107 17.5601 12.5607 17.0901 12.5607 17.0901V17.5101C12.5607 17.5101 13.4607 17.5201 13.7307 17.5101V14.4301H11.4007V15.3601H12.4307V15.6001H12.4507Z" fill="#FF6E27"/>
<path d="M8.58066 12.4004H7.18066V13.2604H8.58066V12.4004Z" fill="#FF6E27"/>
<path fill-rule="evenodd" clip-rule="evenodd" d="M28.35 14.0003C28.43 12.7803 27.24 12.3203 26.22 12.3203C25.19 12.3203 24.1 12.6903 24.04 13.8903C24.04 14.4403 24.31 14.9503 24.81 15.1803C25.88 15.6603 26.99 15.5603 26.99 16.1803C26.99 16.6903 26.53 16.7703 26.22 16.7703C25.73 16.7703 25.39 16.3503 25.4 15.8803H24C24 17.2403 25.07 17.5903 26.21 17.5903C27.34 17.5903 28.51 17.1003 28.51 16.0403C28.51 14.6703 27.18 14.5303 26.36 14.3203C26 14.2203 25.55 14.1403 25.53 13.7703C25.52 13.5603 25.63 13.2603 26.13 13.2603C26.36 13.2603 26.63 13.3503 26.74 13.4503C26.86 13.5503 26.99 13.8203 26.99 14.0103H28.35V14.0003Z" fill="#FF6E27"/>
<path fill-rule="evenodd" clip-rule="evenodd" d="M2.47031 17.5006V14.3206L3.21031 17.5006H4.51031L5.23031 14.0406V17.5006H6.66031V12.3906H4.41031L4.02031 14.8106L3.52031 12.3906H1.32031L1.33031 17.5006H2.47031Z" fill="#FF6E27"/>
<path d="M22.3097 33.8997C18.2097 33.8997 15.1797 31.0197 15.1797 26.8397V26.7897C15.1797 22.8897 17.9597 19.6797 21.9297 19.6797C26.4897 19.6797 28.4997 23.4297 28.4997 26.2497C28.4997 27.3697 27.7097 28.1097 26.6897 28.1097H19.0197C19.3997 29.8697 20.6297 30.7897 22.3597 30.7897C23.4297 30.7897 24.3197 30.4597 25.1097 29.8697C25.3897 29.6697 25.6497 29.5597 26.0497 29.5597C26.9197 29.5597 27.5497 30.2197 27.5497 31.0897C27.5497 31.5997 27.3197 31.9797 27.0397 32.2397C25.8497 33.2597 24.2997 33.8997 22.3097 33.8997ZM24.8097 25.6897C24.5797 23.9597 23.5597 22.7897 21.9297 22.7897C20.3197 22.7897 19.2797 23.9397 18.9697 25.6897H24.8097Z" fill="#FF3C00"/>
<path d="M58.2003 33.8802C54.1003 33.8802 51.0703 31.0002 51.0703 26.8202V26.7702C51.0703 22.8702 53.8503 19.6602 57.8203 19.6602C62.3803 19.6602 64.3903 23.4102 64.3903 26.2302C64.3903 27.3502 63.6003 28.0902 62.5803 28.0902H54.9103C55.2903 29.8502 56.5203 30.7702 58.2503 30.7702C59.3203 30.7702 60.2103 30.4402 61.0003 29.8502C61.2803 29.6502 61.5403 29.5402 61.9403 29.5402C62.8103 29.5402 63.4403 30.2002 63.4403 31.0702C63.4403 31.5802 63.2103 31.9602 62.9303 32.2202C61.7403 33.2502 60.1803 33.8802 58.2003 33.8802ZM60.6903 25.6802C60.4603 23.9502 59.4403 22.7802 57.8103 22.7802C56.2003 22.7802 55.1603 23.9302 54.8503 25.6802H60.6903Z" fill="#FF3C00"/>
<path d="M65.6504 16.94C65.6504 15.87 66.5204 15 67.5904 15C68.6604 15 69.5304 15.87 69.5304 16.94V25.4L74.3704 20.81C74.9304 20.27 75.3904 19.94 76.0804 19.94C77.1204 19.94 77.7904 20.78 77.7904 21.67C77.7904 22.33 77.4304 22.84 76.9004 23.35L73.8404 25.97L77.4804 30.89C77.8104 31.35 77.9604 31.71 77.9604 32.14C77.9604 33.18 77.1204 33.9 76.1504 33.9C75.3904 33.9 74.9304 33.65 74.4704 33.01L71.0804 28.35L69.5304 29.75V31.97C69.5304 33.04 68.6604 33.91 67.5904 33.91C66.5204 33.91 65.6504 33.04 65.6504 31.97V16.94Z" fill="#FF3C00"/>
<line x1="87" y1="21" x2="87" y2="33" stroke="#FF3C00" stroke-width="2" stroke-linecap="round"/>
<path d="M49.6604 23.7096C49.1005 21.9996 48.0305 20.7496 46.5605 20.1096C45.4605 19.6196 43.6805 19.3896 42.0005 20.1696C41.0605 20.6096 40.3505 21.2696 39.8205 22.0096C39.2805 21.2696 38.5805 20.6096 37.6405 20.1696C35.9504 19.3796 34.1705 19.6196 33.0705 20.0996C31.6005 20.7496 30.5304 21.9896 29.9705 23.6996C29.7105 24.4896 29.6705 25.3096 29.8205 26.2796C30.0505 27.6796 30.6105 29.0696 31.4705 30.2896L33.4705 33.1596C33.8005 33.6396 34.3304 33.8896 34.8704 33.8896C35.2104 33.8896 35.5405 33.7896 35.8405 33.5796C36.6105 33.0396 36.8004 31.9796 36.2604 31.2096L34.2604 28.3396C33.7004 27.5296 33.3305 26.6296 33.1805 25.7296C33.1105 25.2996 33.1505 25.0096 33.2005 24.7396C33.3805 23.8796 33.8705 23.4496 34.4305 23.1996C34.6405 23.1096 35.2904 22.9396 35.9404 23.1396C36.7804 23.3696 37.7605 24.3496 38.5304 25.7396C38.5405 25.7496 38.5505 25.7696 38.5505 25.7796C38.7205 26.0896 38.8805 26.4196 39.0205 26.7696C39.0305 26.7896 39.0305 26.8096 39.0405 26.8196C39.0405 26.8296 39.0505 26.8296 39.0505 26.8396C39.1805 27.1196 39.4705 27.3096 39.8005 27.3096C40.1405 27.3096 40.4305 27.1096 40.5605 26.8196C40.5605 26.8196 40.5605 26.8196 40.5605 26.8096C40.5605 26.7996 40.5605 26.7996 40.5705 26.7896C41.3805 24.8396 42.6304 23.4096 43.6704 23.1196C44.3204 22.9196 44.9605 23.0896 45.1805 23.1796C45.7505 23.4296 46.2104 23.8696 46.4104 24.7196C46.4804 24.9896 46.5005 25.2796 46.4305 25.7096C46.2905 26.6096 45.9104 27.5096 45.3504 28.3196L43.3504 31.1896C42.8104 31.9596 43.0005 33.0196 43.7705 33.5596C44.0705 33.7696 44.4105 33.8696 44.7405 33.8696C45.2805 33.8696 45.8104 33.6196 46.1404 33.1396L48.1404 30.2696C48.9904 29.0496 49.5605 27.6596 49.7905 26.2596C49.9605 25.3096 49.9104 24.4896 49.6604 23.7096Z" fill="#FF3C00"/>
<path d="M2.99008 38.1202C2.41008 37.9102 1.72008 37.4302 1.72008 36.4402C1.72008 35.4502 2.49008 34.7802 3.30008 34.7802C3.62008 34.7802 3.80008 34.8302 3.96008 34.8902C4.30008 35.0002 4.51008 35.0502 4.80008 35.0502C5.51008 35.0502 5.86008 34.9202 6.23008 34.2002L6.36008 33.8802L1.54008 22.5502C1.43008 22.2802 1.33008 21.8802 1.33008 21.6202C1.33008 20.4702 2.20008 19.6702 3.31008 19.6702C4.31008 19.6702 4.89008 20.2302 5.24008 21.1902L8.27008 29.1802L11.2601 21.2102C11.5801 20.3602 12.1601 19.6602 13.1901 19.6602C14.2201 19.6602 15.0901 20.4602 15.0901 21.5302C15.0901 21.8502 14.9801 22.3002 14.9101 22.4902L9.96008 34.4902C8.77008 37.4002 7.58008 38.5002 5.18008 38.5002C4.28008 38.5002 3.65008 38.3602 2.99008 38.1202Z" fill="#FF3C00"/>
<path d="M95.0099 31.7999L99.2899 22.2399C99.5199 21.7299 99.9299 21.4199 100.51 21.4199H100.61C101.19 21.4199 101.58 21.7299 101.81 22.2399L106.1 31.7999C106.18 31.9499 106.22 32.0999 106.22 32.2299C106.22 32.7699 105.81 33.1999 105.26 33.1999C104.78 33.1999 104.45 32.9199 104.27 32.4899L103.33 30.3299H97.7299L96.7599 32.5499C96.5899 32.9599 96.2499 33.1899 95.8199 33.1899C95.2899 33.1899 94.8799 32.7799 94.8799 32.2499C94.8799 32.1099 94.9199 31.9599 95.0099 31.7999ZM102.55 28.5299L100.52 23.8699L98.4899 28.5299H102.55Z" fill="#077777"/>
<path d="M116.06 32.21C116.06 32.77 115.61 33.2 115.07 33.2C114.51 33.2 114.07 32.77 114.07 32.21V31.67C113.43 32.58 112.52 33.3 111.1 33.3C109.06 33.3 107.06 31.67 107.06 28.78V28.75C107.06 25.87 109.02 24.23 111.1 24.23C112.53 24.23 113.44 24.94 114.07 25.76V21.99C114.07 21.43 114.51 21 115.06 21C115.62 21 116.07 21.43 116.07 21.99V32.21H116.06ZM109.08 28.75V28.78C109.08 30.46 110.23 31.57 111.58 31.57C112.91 31.57 114.1 30.45 114.1 28.78V28.75C114.1 27.07 112.91 25.96 111.58 25.96C110.21 25.96 109.08 27.02 109.08 28.75Z" fill="#077777"/>
<path d="M118.149 25.3205C118.149 24.7605 118.579 24.3205 119.139 24.3205C119.699 24.3205 120.139 24.7605 120.139 25.3205V25.7305C120.699 24.9605 121.459 24.2305 122.789 24.2305C124.039 24.2305 124.929 24.8405 125.389 25.7605C126.079 24.8405 127.009 24.2305 128.319 24.2305C130.219 24.2305 131.369 25.4305 131.369 27.5605V32.2105C131.369 32.7705 130.939 33.2005 130.379 33.2005C129.819 33.2005 129.369 32.7705 129.369 32.2105V28.1705C129.369 26.7905 128.729 26.0405 127.609 26.0405C126.519 26.0405 125.749 26.8005 125.749 28.2005V32.2005C125.749 32.7605 125.299 33.1905 124.759 33.1905C124.199 33.1905 123.759 32.7605 123.759 32.2005V28.1505C123.759 26.8005 123.099 26.0405 121.999 26.0405C120.899 26.0405 120.139 26.8605 120.139 28.2005V32.2005C120.139 32.7605 119.699 33.1905 119.139 33.1905C118.599 33.1905 118.149 32.7605 118.149 32.2005V25.3205Z" fill="#077777"/>
<path d="M133.35 22.0696C133.35 21.4796 133.84 21.0996 134.49 21.0996C135.14 21.0996 135.63 21.4796 135.63 22.0696V22.1696C135.63 22.7596 135.14 23.1596 134.49 23.1596C133.84 23.1596 133.35 22.7596 133.35 22.1696V22.0696ZM133.5 25.3196C133.5 24.7596 133.93 24.3196 134.49 24.3196C135.05 24.3196 135.5 24.7596 135.5 25.3196V32.2096C135.5 32.7696 135.05 33.1996 134.49 33.1996C133.95 33.1996 133.5 32.7696 133.5 32.2096V25.3196Z" fill="#077777"/>
<path d="M137.689 25.3205C137.689 24.7605 138.119 24.3205 138.679 24.3205C139.239 24.3205 139.679 24.7605 139.679 25.3205V25.7505C140.239 24.9405 141.049 24.2305 142.399 24.2305C144.359 24.2305 145.499 25.5505 145.499 27.5605V32.2105C145.499 32.7705 145.069 33.2005 144.509 33.2005C143.949 33.2005 143.499 32.7705 143.499 32.2105V28.1705C143.499 26.8205 142.829 26.0405 141.639 26.0405C140.489 26.0405 139.679 26.8505 139.679 28.2005V32.2005C139.679 32.7605 139.239 33.1905 138.679 33.1905C138.139 33.1905 137.689 32.7605 137.689 32.2005V25.3205Z" fill="#077777"/>
</svg>
