<svg width="77" height="27" viewBox="0 0 77 27" fill="none" xmlns="http://www.w3.org/2000/svg">
<path d="M7.24937 1.28027H5.85938V5.18027H7.24937V1.28027Z" fill="black"/>
<path fill-rule="evenodd" clip-rule="evenodd" d="M16.3802 2.48981C16.8902 2.48981 17.2902 2.1398 17.2902 1.3698C17.2902 0.279804 16.1702 0.0498047 15.3102 0.0498047H12.9502V5.1798H14.3302V2.9798H14.8902C15.5402 2.9798 15.8102 2.9598 15.8202 3.5098C15.8102 5.1598 15.8402 3.69981 15.8202 5.18981H17.2102V3.31981C17.1702 2.98981 17.3002 2.48981 16.3802 2.48981ZM14.9302 2.0998H14.3502V1.0398H14.9302C15.3802 1.0398 15.8902 0.999805 15.8902 1.52981C15.8902 2.04981 15.3802 2.0998 14.9302 2.0998Z" fill="black"/>
<path fill-rule="evenodd" clip-rule="evenodd" d="M20.0003 0.0400391C18.4803 0.0400391 17.5703 1.00004 17.5703 2.65004C17.5703 4.30004 18.4803 5.25004 20.0003 5.25004C21.5203 5.25004 22.4403 4.29004 22.4403 2.64004C22.4403 0.990039 21.5303 0.0400391 20.0003 0.0400391ZM19.9903 4.46004C19.1203 4.46004 19.0003 3.41004 19.0003 2.67004C19.0003 1.89004 19.1303 0.850039 20.0003 0.850039C20.8703 0.850039 21.0103 1.88004 21.0103 2.66004C21.0103 3.40004 20.8603 4.46004 19.9903 4.46004Z" fill="black"/>
<path fill-rule="evenodd" clip-rule="evenodd" d="M11.1304 3.27977C11.1304 4.37977 10.2404 4.34977 10.1904 4.34977C9.57043 4.34977 9.20043 3.65977 9.20043 2.66977C9.20043 1.84977 9.39043 0.819766 10.2204 0.819766C10.6504 0.819766 11.0304 1.15977 11.0104 1.61977H12.3904C12.2304 0.469765 11.4104 0.00976562 10.0404 0.00976562C8.74043 0.00976562 7.69043 1.05977 7.69043 2.63977C7.69043 4.21977 8.72043 5.23977 10.0204 5.23977C10.7904 5.23977 11.2404 4.76977 11.2404 4.76977V5.18977C11.2404 5.18977 12.1404 5.19977 12.4104 5.18977V2.10977H10.0804V3.03977H11.1104V3.27977H11.1304Z" fill="black"/>
<path d="M7.26035 0.0800781H5.86035V0.940079H7.26035V0.0800781Z" fill="black"/>
<path fill-rule="evenodd" clip-rule="evenodd" d="M27.0297 1.68C27.1097 0.46 25.9197 0 24.8997 0C23.8697 0 22.7797 0.370001 22.7197 1.57C22.7197 2.12 22.9897 2.63 23.4897 2.86C24.5597 3.34 25.6697 3.24 25.6697 3.86C25.6697 4.37 25.2097 4.45 24.8997 4.45C24.4097 4.45 24.0697 4.03 24.0797 3.56H22.6797C22.6797 4.92 23.7497 5.27 24.8897 5.27C26.0197 5.27 27.1897 4.78 27.1897 3.72C27.1897 2.35 25.8597 2.21 25.0397 2C24.6797 1.9 24.2297 1.82 24.2097 1.45C24.1997 1.24 24.3097 0.940001 24.8097 0.940001C25.0397 0.940001 25.3097 1.03 25.4197 1.13C25.5397 1.23 25.6697 1.5 25.6697 1.69H27.0297V1.68Z" fill="black"/>
<path fill-rule="evenodd" clip-rule="evenodd" d="M1.15 5.18031V2.00031L1.89 5.18031H3.19L3.91 1.72031V5.18031H5.34V0.0703125H3.09L2.7 2.49031L2.2 0.0703125H0L0.00999999 5.18031H1.15Z" fill="black"/>
<path d="M20.9894 21.5794C16.8894 21.5794 13.8594 18.6994 13.8594 14.5194V14.4694C13.8594 10.5694 16.6394 7.35938 20.6094 7.35938C25.1694 7.35938 27.1794 11.1094 27.1794 13.9294C27.1794 15.0494 26.3894 15.7894 25.3694 15.7894H17.6994C18.0794 17.5494 19.3094 18.4694 21.0394 18.4694C22.1094 18.4694 22.9994 18.1394 23.7894 17.5494C24.0694 17.3494 24.3294 17.2394 24.7294 17.2394C25.5994 17.2394 26.2294 17.8994 26.2294 18.7694C26.2294 19.2794 25.9994 19.6594 25.7194 19.9194C24.5294 20.9394 22.9794 21.5794 20.9894 21.5794ZM23.4894 13.3694C23.2594 11.6394 22.2394 10.4694 20.6094 10.4694C18.9994 10.4694 17.9594 11.6194 17.6494 13.3694H23.4894Z" fill="black"/>
<path d="M56.88 21.5598C52.78 21.5598 49.75 18.6798 49.75 14.4998V14.4498C49.75 10.5498 52.53 7.33984 56.5 7.33984C61.06 7.33984 63.07 11.0898 63.07 13.9098C63.07 15.0298 62.28 15.7698 61.26 15.7698H53.59C53.97 17.5298 55.2 18.4498 56.93 18.4498C58 18.4498 58.89 18.1198 59.68 17.5298C59.96 17.3298 60.22 17.2198 60.62 17.2198C61.49 17.2198 62.12 17.8798 62.12 18.7498C62.12 19.2598 61.89 19.6398 61.61 19.8998C60.42 20.9298 58.86 21.5598 56.88 21.5598ZM59.37 13.3598C59.14 11.6298 58.12 10.4598 56.49 10.4598C54.88 10.4598 53.84 11.6098 53.53 13.3598H59.37Z" fill="black"/>
<path d="M64.3301 4.61969C64.3301 3.54969 65.2001 2.67969 66.2701 2.67969C67.3401 2.67969 68.2101 3.54969 68.2101 4.61969V13.0797L73.0501 8.48969C73.6101 7.94969 74.0701 7.61969 74.7601 7.61969C75.8001 7.61969 76.4701 8.45969 76.4701 9.34969C76.4701 10.0097 76.1101 10.5197 75.5801 11.0297L72.5201 13.6497L76.1601 18.5697C76.4901 19.0297 76.6401 19.3897 76.6401 19.8197C76.6401 20.8597 75.8001 21.5797 74.8301 21.5797C74.0701 21.5797 73.6101 21.3297 73.1501 20.6897L69.7601 16.0297L68.2101 17.4297V19.6497C68.2101 20.7197 67.3401 21.5897 66.2701 21.5897C65.2001 21.5897 64.3301 20.7197 64.3301 19.6497V4.61969V4.61969Z" fill="black"/>
<path d="M48.3401 11.3893C47.7801 9.67929 46.7101 8.42929 45.2401 7.78929C44.1401 7.29929 42.3601 7.06929 40.6801 7.84929C39.7401 8.28929 39.0301 8.94929 38.5001 9.68929C37.9601 8.94929 37.2601 8.28929 36.3201 7.84929C34.6301 7.05929 32.8501 7.29929 31.7501 7.77929C30.2801 8.42929 29.2101 9.66929 28.6501 11.3793C28.3901 12.1693 28.3501 12.9893 28.5001 13.9593C28.7301 15.3593 29.2901 16.7493 30.1501 17.9693L32.1501 20.8393C32.4801 21.3193 33.0101 21.5693 33.5501 21.5693C33.8901 21.5693 34.2201 21.4693 34.5201 21.2593C35.2901 20.7193 35.4801 19.6593 34.9401 18.8893L32.9401 16.0193C32.3801 15.2093 32.0101 14.3093 31.8601 13.4093C31.7901 12.9793 31.8301 12.6893 31.8801 12.4193C32.0601 11.5593 32.5501 11.1293 33.1101 10.8793C33.3201 10.7893 33.9701 10.6193 34.6201 10.8193C35.4601 11.0493 36.4401 12.0293 37.2101 13.4193C37.2201 13.4293 37.2301 13.4493 37.2301 13.4593C37.4001 13.7693 37.5601 14.0993 37.7001 14.4493C37.7101 14.4693 37.7101 14.4893 37.7201 14.4993C37.7201 14.5093 37.7301 14.5093 37.7301 14.5193C37.8601 14.7993 38.1501 14.9893 38.4801 14.9893C38.8201 14.9893 39.1101 14.7893 39.2401 14.4993C39.2401 14.4993 39.2401 14.4993 39.2401 14.4893C39.2401 14.4793 39.2401 14.4793 39.2501 14.4693C40.0601 12.5193 41.3101 11.0893 42.3501 10.7993C43.0001 10.5993 43.6401 10.7693 43.8601 10.8593C44.4301 11.1093 44.8901 11.5493 45.0901 12.3993C45.1601 12.6693 45.1801 12.9593 45.1101 13.3893C44.9701 14.2893 44.5901 15.1893 44.0301 15.9993L42.0301 18.8693C41.4901 19.6393 41.6801 20.6993 42.4501 21.2393C42.7501 21.4493 43.0901 21.5493 43.4201 21.5493C43.9601 21.5493 44.4901 21.2993 44.8201 20.8193L46.8201 17.9493C47.6701 16.7293 48.2401 15.3393 48.4701 13.9393C48.6401 12.9893 48.5901 12.1693 48.3401 11.3893Z" fill="black"/>
<path d="M1.66977 25.7998C1.08977 25.5898 0.399766 25.1098 0.399766 24.1198C0.399766 23.1298 1.16977 22.4598 1.97977 22.4598C2.29977 22.4598 2.47977 22.5098 2.63977 22.5698C2.97977 22.6798 3.18977 22.7298 3.47977 22.7298C4.18977 22.7298 4.53977 22.5998 4.90977 21.8798L5.03977 21.5598L0.219766 10.2298C0.109766 9.95984 0.00976562 9.55984 0.00976562 9.29984C0.00976562 8.14984 0.879766 7.34984 1.98977 7.34984C2.98977 7.34984 3.56977 7.90984 3.91977 8.86984L6.94977 16.8598L9.93977 8.88984C10.2598 8.03984 10.8398 7.33984 11.8698 7.33984C12.8998 7.33984 13.7698 8.13984 13.7698 9.20984C13.7698 9.52984 13.6598 9.97984 13.5898 10.1698L8.63977 22.1698C7.44977 25.0798 6.25977 26.1798 3.85977 26.1798C2.95977 26.1798 2.32977 26.0398 1.66977 25.7998Z" fill="black"/>
</svg>
