<svg width="118" height="40" viewBox="0 0 118 40" fill="none" xmlns="http://www.w3.org/2000/svg">
<path fill-rule="evenodd" clip-rule="evenodd" d="M25.0268 3.80469C25.806 3.80469 26.4171 3.26993 26.4171 2.09346C26.4171 0.428072 24.7059 0.0766602 23.3919 0.0766602H19.7861V7.91469H21.8946V4.55335H22.7502C23.7433 4.55335 24.1559 4.52279 24.1711 5.36313C24.1559 7.88413 24.2017 5.65343 24.1711 7.92997H26.2949V5.07283C26.2338 4.56863 26.4324 3.80469 25.0268 3.80469ZM22.8113 3.20882H21.9252V1.58926H22.8113C23.4989 1.58926 24.2781 1.52815 24.2781 2.33792C24.2781 3.13242 23.4989 3.20882 22.8113 3.20882Z" fill="#FF6E27"/>
<path fill-rule="evenodd" clip-rule="evenodd" d="M30.5575 0.0610352C28.2351 0.0610352 26.8447 1.5278 26.8447 4.04881C26.8447 6.56981 28.2351 8.02129 30.5575 8.02129C32.8799 8.02129 34.2855 6.55453 34.2855 4.03353C34.2855 1.51252 32.8951 0.0610352 30.5575 0.0610352ZM30.5422 6.81427C29.2129 6.81427 29.0296 5.20999 29.0296 4.07936C29.0296 2.88762 29.2282 1.29862 30.5575 1.29862C31.8867 1.29862 32.1006 2.87234 32.1006 4.06408C32.1006 5.19471 31.8715 6.81427 30.5422 6.81427Z" fill="#FF6E27"/>
<path fill-rule="evenodd" clip-rule="evenodd" d="M17.0054 5.01131C17.0054 6.69198 15.6456 6.64614 15.5692 6.64614C14.6219 6.64614 14.0566 5.5919 14.0566 4.0793C14.0566 2.82644 14.3469 1.25272 15.615 1.25272C16.272 1.25272 16.8526 1.7722 16.8221 2.47502H18.9306C18.6861 0.717961 17.4332 0.0151367 15.34 0.0151367C13.3538 0.0151367 11.7495 1.61941 11.7495 4.03346C11.7495 6.44752 13.3232 8.00595 15.3095 8.00595C16.4859 8.00595 17.1735 7.28785 17.1735 7.28785V7.92956C17.1735 7.92956 18.5486 7.94484 18.9611 7.92956V3.22369H15.4011V4.64462H16.9749V5.01131H17.0054Z" fill="#FF6E27"/>
<path d="M11.0922 0.12207H8.95312V1.43605H11.0922V0.12207Z" fill="#FF6E27"/>
<path fill-rule="evenodd" clip-rule="evenodd" d="M41.2991 2.56684C41.4213 0.702826 39.6032 0 38.0447 0C36.471 0 34.8056 0.565317 34.7139 2.39877C34.7139 3.23911 35.1265 4.01833 35.8904 4.36974C37.5252 5.10312 39.2212 4.95034 39.2212 5.89762C39.2212 6.67684 38.5184 6.79907 38.0447 6.79907C37.2961 6.79907 36.7766 6.15736 36.7919 5.43926H34.6528C34.6528 7.51717 36.2877 8.05193 38.0294 8.05193C39.756 8.05193 41.5436 7.30327 41.5436 5.68372C41.5436 3.59052 39.5115 3.37662 38.2586 3.05576C37.7086 2.90297 37.021 2.78074 36.9905 2.21543C36.9752 1.89457 37.1433 1.43621 37.9072 1.43621C38.2586 1.43621 38.6712 1.57372 38.8392 1.72651C39.0226 1.87929 39.2212 2.29182 39.2212 2.58212H41.2991V2.56684Z" fill="#FF6E27"/>
<path fill-rule="evenodd" clip-rule="evenodd" d="M1.75706 7.9144V3.05574L2.88769 7.9144H4.87394L5.97401 2.62794V7.9144H8.15888V0.106934H4.72115L4.12528 3.80441L3.36134 0.106934H0L0.0152788 7.9144H1.75706Z" fill="#FF6E27"/>
<path d="M11.0779 1.95557H8.9541V7.9143H11.0779V1.95557Z" fill="#FF6E27"/>
<path d="M32.0705 32.9716C25.8062 32.9716 21.1768 28.5713 21.1768 22.1847V22.1083C21.1768 16.1496 25.4243 11.2451 31.49 11.2451C38.4571 11.2451 41.5281 16.9747 41.5281 21.2833C41.5281 22.9945 40.3211 24.1252 38.7627 24.1252H27.0438C27.6244 26.8142 29.5037 28.2199 32.1469 28.2199C33.7818 28.2199 35.1416 27.7157 36.3486 26.8142C36.7764 26.5086 37.1737 26.3406 37.7848 26.3406C39.1141 26.3406 40.0766 27.349 40.0766 28.6782C40.0766 29.4575 39.7252 30.0381 39.2974 30.4353C37.4792 31.9937 35.111 32.9716 32.0705 32.9716ZM35.8902 20.4277C35.5388 17.7844 33.9804 15.9968 31.49 15.9968C29.0301 15.9968 27.4411 17.7539 26.9674 20.4277H35.8902Z" fill="white"/>
<path d="M86.9065 32.9413C80.6422 32.9413 76.0127 28.541 76.0127 22.1545V22.0781C76.0127 16.1193 80.2602 11.2148 86.3259 11.2148C93.293 11.2148 96.3641 16.9444 96.3641 21.253C96.3641 22.9642 95.157 24.0949 93.5986 24.0949H81.8798C82.4604 26.784 84.3396 28.1896 86.9829 28.1896C88.6177 28.1896 89.9775 27.6854 91.1846 26.784C91.6124 26.4784 92.0096 26.3103 92.6208 26.3103C93.95 26.3103 94.9126 27.3187 94.9126 28.648C94.9126 29.4272 94.5612 30.0078 94.1334 30.405C92.3152 31.9787 89.9317 32.9413 86.9065 32.9413ZM90.7109 20.4127C90.3595 17.7695 88.8011 15.9818 86.3106 15.9818C83.8507 15.9818 82.2617 17.7389 81.7881 20.4127H90.7109Z" fill="white"/>
<path d="M98.2886 7.05882C98.2886 5.42398 99.6178 4.09473 101.253 4.09473C102.887 4.09473 104.217 5.42398 104.217 7.05882V19.9847L111.612 12.9717C112.467 12.1467 113.17 11.6425 114.224 11.6425C115.813 11.6425 116.837 12.9259 116.837 14.2857C116.837 15.2941 116.287 16.0733 115.477 16.8525L110.802 20.8556L116.363 28.3728C116.868 29.0756 117.097 29.6256 117.097 30.2826C117.097 31.8716 115.813 32.9717 114.331 32.9717C113.17 32.9717 112.467 32.5897 111.764 31.6119L106.585 24.4919L104.217 26.631V30.0229C104.217 31.6577 102.887 32.9869 101.253 32.9869C99.6178 32.9869 98.2886 31.6577 98.2886 30.0229V7.05882V7.05882Z" fill="white"/>
<path d="M73.8578 17.4025C73.0022 14.7898 71.3673 12.88 69.1214 11.9021C67.4407 11.1535 64.7211 10.8021 62.1542 11.9938C60.718 12.6661 59.6332 13.6745 58.8234 14.8051C57.9984 13.6745 56.9289 12.6661 55.4927 11.9938C52.9105 10.7868 50.1909 11.1535 48.5102 11.8869C46.2643 12.88 44.6294 14.7746 43.7738 17.3872C43.3766 18.5943 43.3154 19.8471 43.5446 21.3292C43.896 23.4682 44.7517 25.592 46.0656 27.456L49.1214 31.841C49.6256 32.5744 50.4354 32.9563 51.2604 32.9563C51.7799 32.9563 52.2841 32.8036 52.7425 32.4827C53.9189 31.6576 54.2092 30.0381 53.3842 28.8616L50.3284 24.4766C49.4728 23.239 48.9075 21.8639 48.6783 20.4888C48.5714 19.8318 48.6325 19.3888 48.7089 18.9762C48.9839 17.6623 49.7325 17.0053 50.5882 16.6233C50.909 16.4858 51.9021 16.226 52.8953 16.5316C54.1787 16.883 55.676 18.3804 56.8525 20.5041C56.8677 20.5194 56.883 20.55 56.883 20.5652C57.1428 21.0389 57.3872 21.5431 57.6011 22.0778C57.6164 22.1084 57.6164 22.1389 57.6317 22.1542C57.6317 22.1695 57.647 22.1695 57.647 22.1848C57.8456 22.6126 58.2887 22.9029 58.7929 22.9029C59.3124 22.9029 59.7554 22.5973 59.9541 22.1542C59.9541 22.1542 59.9541 22.1542 59.9541 22.1389C59.9541 22.1237 59.9541 22.1237 59.9693 22.1084C61.2069 19.129 63.1168 16.9441 64.7058 16.5011C65.6989 16.1955 66.6767 16.4552 67.0129 16.5927C67.8838 16.9747 68.5866 17.647 68.8922 18.9457C68.9991 19.3582 69.0297 19.8013 68.9227 20.4583C68.7088 21.8334 68.1282 23.2085 67.2726 24.446L64.2169 28.8311C63.3918 30.0075 63.6821 31.6271 64.8586 32.4521C65.3169 32.773 65.8364 32.9258 66.3406 32.9258C67.1657 32.9258 67.9754 32.5438 68.4796 31.8104L71.5354 27.4254C72.8341 25.5614 73.705 23.4376 74.0564 21.2986C74.3161 19.8471 74.2398 18.5943 73.8578 17.4025Z" fill="white"/>
<path d="M2.55191 39.4195C1.66574 39.0987 0.611499 38.3653 0.611499 36.8527C0.611499 35.3401 1.78797 34.3164 3.02555 34.3164C3.51447 34.3164 3.78949 34.3928 4.03395 34.4845C4.55343 34.6525 4.87429 34.7289 5.31737 34.7289C6.40217 34.7289 6.93693 34.5303 7.50224 33.4302L7.70087 32.9413L0.33648 15.6304C0.168413 15.2179 0.015625 14.6067 0.015625 14.2095C0.015625 12.4524 1.34488 11.2301 3.04083 11.2301C4.56871 11.2301 5.45488 12.0857 5.98964 13.5525L10.6191 25.7603L15.1875 13.5831C15.6764 12.2844 16.5626 11.2148 18.1363 11.2148C19.71 11.2148 21.0393 12.4371 21.0393 14.072C21.0393 14.5609 20.8712 15.2484 20.7642 15.5387L13.2012 33.8733C11.3831 38.3195 9.56488 40.0001 5.89797 40.0001C4.52287 40.0001 3.56031 39.7862 2.55191 39.4195Z" fill="white"/>
</svg>
