<svg width="170" height="56" viewBox="0 0 170 56" fill="none" xmlns="http://www.w3.org/2000/svg">
<path d="M8.25035 16.2803H6.86035V20.1803H8.25035V16.2803Z" fill="#FF6E27"/>
<path fill-rule="evenodd" clip-rule="evenodd" d="M17.3802 17.4898C17.8902 17.4898 18.2902 17.1398 18.2902 16.3698C18.2902 15.2798 17.1702 15.0498 16.3102 15.0498H13.9502V20.1798H15.3302V17.9798H15.8902C16.5402 17.9798 16.8102 17.9598 16.8202 18.5098C16.8102 20.1598 16.8402 18.6998 16.8202 20.1898H18.2102V18.3198C18.1702 17.9898 18.3002 17.4898 17.3802 17.4898ZM15.9302 17.0998H15.3502V16.0398H15.9302C16.3802 16.0398 16.8902 15.9998 16.8902 16.5298C16.8902 17.0498 16.3802 17.0998 15.9302 17.0998Z" fill="#FF6E27"/>
<path fill-rule="evenodd" clip-rule="evenodd" d="M21.0003 15.04C19.4803 15.04 18.5703 16 18.5703 17.65C18.5703 19.3 19.4803 20.25 21.0003 20.25C22.5203 20.25 23.4403 19.29 23.4403 17.64C23.4403 15.99 22.5303 15.04 21.0003 15.04ZM20.9903 19.46C20.1203 19.46 20.0003 18.41 20.0003 17.67C20.0003 16.89 20.1303 15.85 21.0003 15.85C21.8703 15.85 22.0103 16.88 22.0103 17.66C22.0103 18.4 21.8603 19.46 20.9903 19.46Z" fill="#FF6E27"/>
<path fill-rule="evenodd" clip-rule="evenodd" d="M12.1304 18.2798C12.1304 19.3798 11.2404 19.3498 11.1904 19.3498C10.5704 19.3498 10.2004 18.6598 10.2004 17.6698C10.2004 16.8498 10.3904 15.8198 11.2204 15.8198C11.6504 15.8198 12.0304 16.1598 12.0104 16.6198H13.3904C13.2304 15.4698 12.4104 15.0098 11.0404 15.0098C9.74043 15.0098 8.69043 16.0598 8.69043 17.6398C8.69043 19.2198 9.72043 20.2398 11.0204 20.2398C11.7904 20.2398 12.2404 19.7698 12.2404 19.7698V20.1898C12.2404 20.1898 13.1404 20.1998 13.4104 20.1898V17.1098H11.0804V18.0398H12.1104V18.2798H12.1304Z" fill="#FF6E27"/>
<path d="M8.26035 15.0801H6.86035V15.9401H8.26035V15.0801Z" fill="#FF6E27"/>
<path fill-rule="evenodd" clip-rule="evenodd" d="M28.0297 16.68C28.1097 15.46 26.9197 15 25.8997 15C24.8697 15 23.7797 15.37 23.7197 16.57C23.7197 17.12 23.9897 17.63 24.4897 17.86C25.5597 18.34 26.6697 18.24 26.6697 18.86C26.6697 19.37 26.2097 19.45 25.8997 19.45C25.4097 19.45 25.0697 19.03 25.0797 18.56H23.6797C23.6797 19.92 24.7497 20.27 25.8897 20.27C27.0197 20.27 28.1897 19.78 28.1897 18.72C28.1897 17.35 26.8597 17.21 26.0397 17C25.6797 16.9 25.2297 16.82 25.2097 16.45C25.1997 16.24 25.3097 15.94 25.8097 15.94C26.0397 15.94 26.3097 16.03 26.4197 16.13C26.5397 16.23 26.6697 16.5 26.6697 16.69H28.0297V16.68Z" fill="#FF6E27"/>
<path fill-rule="evenodd" clip-rule="evenodd" d="M2.15 20.1803V17.0003L2.89 20.1803H4.19L4.91 16.7203V20.1803H6.34V15.0703H4.09L3.7 17.4903L3.2 15.0703H1L1.01 20.1803H2.15Z" fill="#FF6E27"/>
<path d="M21.9894 36.5794C17.8894 36.5794 14.8594 33.6994 14.8594 29.5194V29.4694C14.8594 25.5694 17.6394 22.3594 21.6094 22.3594C26.1694 22.3594 28.1794 26.1094 28.1794 28.9294C28.1794 30.0494 27.3894 30.7894 26.3694 30.7894H18.6994C19.0794 32.5494 20.3094 33.4694 22.0394 33.4694C23.1094 33.4694 23.9994 33.1394 24.7894 32.5494C25.0694 32.3494 25.3294 32.2394 25.7294 32.2394C26.5994 32.2394 27.2294 32.8994 27.2294 33.7694C27.2294 34.2794 26.9994 34.6594 26.7194 34.9194C25.5294 35.9394 23.9794 36.5794 21.9894 36.5794ZM24.4894 28.3694C24.2594 26.6394 23.2394 25.4694 21.6094 25.4694C19.9994 25.4694 18.9594 26.6194 18.6494 28.3694H24.4894Z" fill="#FF3C00"/>
<path d="M57.88 36.5598C53.78 36.5598 50.75 33.6798 50.75 29.4998V29.4498C50.75 25.5498 53.53 22.3398 57.5 22.3398C62.06 22.3398 64.07 26.0898 64.07 28.9098C64.07 30.0298 63.28 30.7698 62.26 30.7698H54.59C54.97 32.5298 56.2 33.4498 57.93 33.4498C59 33.4498 59.89 33.1198 60.68 32.5298C60.96 32.3298 61.22 32.2198 61.62 32.2198C62.49 32.2198 63.12 32.8798 63.12 33.7498C63.12 34.2598 62.89 34.6398 62.61 34.8998C61.42 35.9298 59.86 36.5598 57.88 36.5598ZM60.37 28.3598C60.14 26.6298 59.12 25.4598 57.49 25.4598C55.88 25.4598 54.84 26.6098 54.53 28.3598H60.37Z" fill="#FF3C00"/>
<path d="M65.3301 19.6197C65.3301 18.5497 66.2001 17.6797 67.2701 17.6797C68.3401 17.6797 69.2101 18.5497 69.2101 19.6197V28.0797L74.0501 23.4897C74.6101 22.9497 75.0701 22.6197 75.7601 22.6197C76.8001 22.6197 77.4701 23.4597 77.4701 24.3497C77.4701 25.0097 77.1101 25.5197 76.5801 26.0297L73.5201 28.6497L77.1601 33.5697C77.4901 34.0297 77.6401 34.3897 77.6401 34.8197C77.6401 35.8597 76.8001 36.5797 75.8301 36.5797C75.0701 36.5797 74.6101 36.3297 74.1501 35.6897L70.7601 31.0297L69.2101 32.4297V34.6497C69.2101 35.7197 68.3401 36.5897 67.2701 36.5897C66.2001 36.5897 65.3301 35.7197 65.3301 34.6497V19.6197Z" fill="#FF3C00"/>
<path d="M49.3401 26.3893C48.7801 24.6793 47.7101 23.4293 46.2401 22.7893C45.1401 22.2993 43.3601 22.0693 41.6801 22.8493C40.7401 23.2893 40.0301 23.9493 39.5001 24.6893C38.9601 23.9493 38.2601 23.2893 37.3201 22.8493C35.6301 22.0593 33.8501 22.2993 32.7501 22.7793C31.2801 23.4293 30.2101 24.6693 29.6501 26.3793C29.3901 27.1693 29.3501 27.9893 29.5001 28.9593C29.7301 30.3593 30.2901 31.7493 31.1501 32.9693L33.1501 35.8393C33.4801 36.3193 34.0101 36.5693 34.5501 36.5693C34.8901 36.5693 35.2201 36.4693 35.5201 36.2593C36.2901 35.7193 36.4801 34.6593 35.9401 33.8893L33.9401 31.0193C33.3801 30.2093 33.0101 29.3093 32.8601 28.4093C32.7901 27.9793 32.8301 27.6893 32.8801 27.4193C33.0601 26.5593 33.5501 26.1293 34.1101 25.8793C34.3201 25.7893 34.9701 25.6193 35.6201 25.8193C36.4601 26.0493 37.4401 27.0293 38.2101 28.4193C38.2201 28.4293 38.2301 28.4493 38.2301 28.4593C38.4001 28.7693 38.5601 29.0993 38.7001 29.4493C38.7101 29.4693 38.7101 29.4893 38.7201 29.4993C38.7201 29.5093 38.7301 29.5093 38.7301 29.5193C38.8601 29.7993 39.1501 29.9893 39.4801 29.9893C39.8201 29.9893 40.1101 29.7893 40.2401 29.4993C40.2401 29.4993 40.2401 29.4993 40.2401 29.4893C40.2401 29.4793 40.2401 29.4793 40.2501 29.4693C41.0601 27.5193 42.3101 26.0893 43.3501 25.7993C44.0001 25.5993 44.6401 25.7693 44.8601 25.8593C45.4301 26.1093 45.8901 26.5493 46.0901 27.3993C46.1601 27.6693 46.1801 27.9593 46.1101 28.3893C45.9701 29.2893 45.5901 30.1893 45.0301 30.9993L43.0301 33.8693C42.4901 34.6393 42.6801 35.6993 43.4501 36.2393C43.7501 36.4493 44.0901 36.5493 44.4201 36.5493C44.9601 36.5493 45.4901 36.2993 45.8201 35.8193L47.8201 32.9493C48.6701 31.7293 49.2401 30.3393 49.4701 28.9393C49.6401 27.9893 49.5901 27.1693 49.3401 26.3893Z" fill="#FF3C00"/>
<path d="M2.66977 40.7998C2.08977 40.5898 1.39977 40.1098 1.39977 39.1198C1.39977 38.1298 2.16977 37.4598 2.97977 37.4598C3.29977 37.4598 3.47977 37.5098 3.63977 37.5698C3.97977 37.6798 4.18977 37.7298 4.47977 37.7298C5.18977 37.7298 5.53977 37.5998 5.90977 36.8798L6.03977 36.5598L1.21977 25.2298C1.10977 24.9598 1.00977 24.5598 1.00977 24.2998C1.00977 23.1498 1.87977 22.3498 2.98977 22.3498C3.98977 22.3498 4.56977 22.9098 4.91977 23.8698L7.94977 31.8598L10.9398 23.8898C11.2598 23.0398 11.8398 22.3398 12.8698 22.3398C13.8998 22.3398 14.7698 23.1398 14.7698 24.2098C14.7698 24.5298 14.6598 24.9798 14.5898 25.1698L9.63977 37.1698C8.44977 40.0798 7.25977 41.1798 4.85977 41.1798C3.95977 41.1798 3.32977 41.0398 2.66977 40.7998Z" fill="#FF3C00"/>
<path d="M94.3203 24.8794C94.3203 24.2994 94.7603 23.8594 95.3403 23.8594H99.4603C100.91 23.8594 102.05 24.2894 102.79 25.0094C103.4 25.6394 103.75 26.4894 103.75 27.4994V27.5294C103.75 29.3794 102.68 30.4994 101.13 30.9694L103.34 33.7494C103.54 33.9994 103.67 34.2094 103.67 34.5294C103.67 35.0894 103.19 35.4694 102.7 35.4694C102.24 35.4694 101.94 35.2594 101.71 34.9394L98.9103 31.3594H96.3603V34.4594C96.3603 35.0194 95.9203 35.4594 95.3603 35.4594C94.7803 35.4594 94.3403 35.0194 94.3403 34.4594V24.8794H94.3203ZM99.3103 29.5794C100.76 29.5794 101.68 28.8194 101.68 27.6494V27.6194C101.68 26.3794 100.79 25.7094 99.2903 25.7094H96.3403V29.5794H99.3103Z" fill="#077777"/>
<path d="M109.41 35.5898C106.89 35.5898 104.94 33.7598 104.94 31.0698V31.0398C104.94 28.5498 106.7 26.5098 109.19 26.5098C111.96 26.5098 113.33 28.7798 113.33 30.7898C113.33 31.3498 112.9 31.7498 112.39 31.7498H106.93C107.14 33.1698 108.15 33.9598 109.43 33.9598C110.27 33.9598 110.93 33.6598 111.49 33.1998C111.64 33.0798 111.77 33.0198 112 33.0198C112.45 33.0198 112.79 33.3698 112.79 33.8298C112.79 34.0798 112.67 34.2898 112.53 34.4398C111.75 35.1498 110.76 35.5898 109.41 35.5898ZM111.39 30.4398C111.26 29.1498 110.5 28.1498 109.18 28.1498C107.96 28.1498 107.1 29.0898 106.92 30.4398H111.39Z" fill="#077777"/>
<path d="M114.63 34.5196C114.42 34.3996 114.25 34.1596 114.25 33.8296C114.25 33.3796 114.6 33.0196 115.06 33.0196C115.22 33.0196 115.37 33.0696 115.49 33.1396C116.33 33.6996 117.2 33.9796 118 33.9796C118.86 33.9796 119.35 33.6196 119.35 33.0396V33.0096C119.35 32.3296 118.43 32.0996 117.41 31.7896C116.12 31.4296 114.69 30.8996 114.69 29.2396V29.2096C114.69 27.5596 116.06 26.5596 117.79 26.5596C118.71 26.5596 119.69 26.8196 120.53 27.2696C120.81 27.4196 121.01 27.6796 121.01 28.0296C121.01 28.4896 120.65 28.8396 120.19 28.8396C120.02 28.8396 119.93 28.8096 119.79 28.7396C119.08 28.3796 118.36 28.1496 117.75 28.1496C116.97 28.1496 116.53 28.5096 116.53 29.0096V29.0396C116.53 29.6796 117.47 29.9496 118.49 30.2796C119.76 30.6796 121.19 31.2496 121.19 32.8196V32.8496C121.19 34.6796 119.77 35.5896 117.96 35.5896C116.84 35.5596 115.63 35.2096 114.63 34.5196Z" fill="#077777"/>
<path d="M123.05 32.9897V28.4097H122.72C122.24 28.4097 121.86 28.0297 121.86 27.5497C121.86 27.0697 122.24 26.6897 122.72 26.6897H123.05V25.2097C123.05 24.6697 123.5 24.2197 124.06 24.2197C124.6 24.2197 125.05 24.6597 125.05 25.2097V26.6897H126.62C127.1 26.6897 127.49 27.0697 127.49 27.5497C127.49 28.0297 127.09 28.4097 126.62 28.4097H125.05V32.6797C125.05 33.4497 125.45 33.7697 126.12 33.7697C126.35 33.7697 126.55 33.7197 126.61 33.7197C127.06 33.7197 127.45 34.0797 127.45 34.5397C127.45 34.8997 127.2 35.1997 126.92 35.3097C126.49 35.4597 126.08 35.5397 125.55 35.5397C124.08 35.5397 123.05 34.8997 123.05 32.9897Z" fill="#077777"/>
<path d="M128.271 31.0898V31.0598C128.271 28.5698 130.251 26.5098 132.921 26.5098C135.591 26.5098 137.551 28.5398 137.551 31.0298V31.0598C137.551 33.5298 135.571 35.5898 132.891 35.5898C130.231 35.5898 128.271 33.5698 128.271 31.0898ZM135.551 31.0898V31.0598C135.551 29.5298 134.451 28.2598 132.881 28.2598C131.281 28.2598 130.261 29.5098 130.261 31.0298V31.0598C130.261 32.5798 131.361 33.8498 132.911 33.8498C134.531 33.8498 135.551 32.5898 135.551 31.0898Z" fill="#077777"/>
<path d="M139.15 27.5991C139.15 27.0391 139.58 26.5991 140.14 26.5991C140.7 26.5991 141.14 27.0391 141.14 27.5991V28.4891C141.6 27.3991 142.46 26.5791 143.33 26.5791C143.96 26.5791 144.32 26.9891 144.32 27.5691C144.32 28.0991 143.97 28.4391 143.53 28.5291C142.11 28.7791 141.14 29.8591 141.14 31.9291V34.4991C141.14 35.0391 140.7 35.4891 140.14 35.4891C139.6 35.4891 139.15 35.0591 139.15 34.4991V27.5991Z" fill="#077777"/>
<path d="M144.561 32.8898V32.8598C144.561 30.9798 146.031 30.0598 148.151 30.0598C149.121 30.0598 149.811 30.2098 150.491 30.4198V30.2098C150.491 28.9698 149.731 28.3098 148.331 28.3098C147.571 28.3098 146.951 28.4398 146.401 28.6598C146.281 28.6898 146.191 28.7098 146.091 28.7098C145.631 28.7098 145.251 28.3498 145.251 27.8898C145.251 27.5298 145.501 27.2098 145.791 27.0998C146.611 26.7898 147.461 26.5898 148.591 26.5898C149.891 26.5898 150.861 26.9398 151.471 27.5598C152.111 28.1898 152.411 29.1098 152.411 30.2498V34.5398C152.411 35.0798 151.981 35.4998 151.441 35.4998C150.861 35.4998 150.471 35.0998 150.471 34.6598V34.3298C149.881 35.0398 148.971 35.5998 147.641 35.5998C146.011 35.5798 144.561 34.6398 144.561 32.8898ZM150.521 32.2598V31.6698C150.011 31.4698 149.331 31.3198 148.541 31.3198C147.251 31.3198 146.501 31.8598 146.501 32.7698V32.7998C146.501 33.6398 147.241 34.1198 148.201 34.1198C149.521 34.1298 150.521 33.3698 150.521 32.2598Z" fill="#077777"/>
<path d="M154.391 27.5998C154.391 27.0398 154.821 26.5998 155.381 26.5998C155.941 26.5998 156.381 27.0398 156.381 27.5998V28.0298C156.941 27.2198 157.751 26.5098 159.101 26.5098C161.061 26.5098 162.201 27.8298 162.201 29.8398V34.4898C162.201 35.0498 161.771 35.4798 161.211 35.4798C160.651 35.4798 160.201 35.0498 160.201 34.4898V30.4498C160.201 29.0998 159.531 28.3198 158.341 28.3198C157.191 28.3198 156.381 29.1298 156.381 30.4798V34.4798C156.381 35.0398 155.941 35.4698 155.381 35.4698C154.841 35.4698 154.391 35.0398 154.391 34.4798V27.5998Z" fill="#077777"/>
<line x1="86.6797" y1="23.6797" x2="86.6797" y2="35.6797" stroke="#FF3C00" stroke-width="2" stroke-linecap="round"/>
</svg>
